<svg width="259" height="210" viewBox="0 0 259 210" fill="none" xmlns="http://www.w3.org/2000/svg">
<path d="M253.183 89.7875C242.52 107.992 234.044 127.108 227.754 147.135C221.464 167.162 205.574 184.708 180.082 199.773C154.591 214.839 133.541 211.682 116.934 190.304C100.327 168.926 76.5057 159.775 45.4702 162.85C14.4348 165.925 -0.467878 157.192 0.762195 136.649C1.99226 116.106 4.02139 95.1617 6.84956 73.8162C9.67773 52.4708 22.4966 33.1274 45.3061 15.786C68.1156 -1.55543 92.3491 -4.39915 118.007 7.25483C143.664 18.9088 164.842 26.8968 181.542 31.2188C198.241 35.5407 217.022 41.8316 237.885 50.0913C258.747 58.351 263.847 71.5831 253.183 89.7875Z" fill="#7EAA92"/>
</svg>
