<svg width="244" height="298" viewBox="0 0 244 298" fill="none" xmlns="http://www.w3.org/2000/svg">
<path d="M242.022 110.594C241.97 110.387 241.908 110.202 241.846 110.005C241.278 108.25 240.256 106.794 238.779 105.658C232.066 100.473 216.937 107.289 191.81 114.312H191.8C190.912 73.3123 183.414 43.2597 159.764 29.483C159.754 29.483 159.754 29.483 159.754 29.483H159.744C159.733 29.4727 159.733 29.4727 159.733 29.4727C150.16 23.9063 137.943 21.0043 122.441 21.1282C68.6359 20.7048 54.3325 56.7059 53.0932 114.312C27.9668 107.3 12.8166 100.473 6.10381 105.658C-4.01699 113.475 6.93 136.66 42.074 161.642L43.0241 157.583L43.0447 157.594C30.8275 207.33 40.9586 240.615 69.7306 258.482C75.6482 262.158 82.3506 265.174 89.807 267.559C111.009 274.313 133.874 274.313 155.076 267.559C199.318 253.442 216.978 216.697 201.301 155.466L201.342 155.435L202.798 161.642C228.741 143.197 241.495 125.744 242.332 114.715V114.704C242.445 113.207 242.342 111.833 242.022 110.594ZM191.8 114.694V114.642L191.81 114.694H191.8Z" fill="url(#paint0_linear_15_369)"/>
<g opacity="0.55">
<g opacity="0.55">
<path opacity="0.55" d="M238.779 105.657C232.376 100.7 214.933 107.651 191.8 114.312C191.851 115.974 192.647 117.162 192.688 118.876C217.009 112.081 234.576 105.027 241.598 109.303C240.989 107.867 240.049 106.639 238.779 105.657ZM204.833 159.546L204.792 159.566C204.833 159.752 204.885 159.928 204.926 160.103C204.936 160.103 204.957 160.093 204.967 160.083L204.833 159.546ZM45.5852 165.732C46.2255 162.861 46.8039 159.969 47.2789 157.067C47.5474 155.404 46.2049 153.907 44.5215 153.989L44.3563 154C44.3563 154 41.9397 162.355 41.7951 163.026C33.5435 200.865 38.8105 228.718 55.8093 247.09C41.413 228.522 37.5196 201.536 45.5852 165.732Z" fill="white" fill-opacity="0.8"/>
</g>
</g>
<g opacity="0.55">
<g opacity="0.55">
<path opacity="0.55" d="M174.326 42.4129C163.72 31.1457 148.208 25.0733 125.932 25.2488C72.9631 24.8357 58.2776 59.7112 56.6562 115.768C56.6045 117.596 56.3567 119.414 55.9436 121.19L52.1844 137.249L53.021 117.42C30.022 110.79 15.9871 104.842 9.60479 109.768C3.31543 114.632 5.16402 125.424 15.8941 138.891C2.12778 123.513 -0.794853 110.997 6.12447 105.658C12.8372 100.473 27.9771 107.3 53.1139 114.312C54.3532 56.7059 68.6565 20.7048 122.462 21.1282C147.31 20.9423 163.73 28.5123 174.326 42.4129Z" fill="white" fill-opacity="0.8"/>
</g>
</g>
<g opacity="0.55">
<g opacity="0.55">
<g opacity="0.55">
<path opacity="0.55" d="M191.8 114.653V114.705H191.81L191.8 114.653Z" fill="white" fill-opacity="0.8"/>
</g>
</g>
</g>
<path d="M193.018 244.027C153.093 290.073 73.7066 274.462 52.835 244.027C32.738 214.464 47.5887 187.025 54.7043 176.815C58.5047 171.352 61.7475 165.495 64.1848 159.307C70.5877 143.053 68.8837 132.211 66.6943 97.9618C64.5152 77.3545 76.4123 58.7995 90.788 54.705C100.382 51.9684 111.474 56.8611 119.581 73.1563C121.006 76.0276 125.085 76.0484 126.593 73.2081C135.898 55.7105 147.031 51.4709 157.141 55.3995C170.556 60.6032 181.225 78.3496 179.159 97.9514C176.97 132.2 175.255 143.043 181.658 159.297C184.106 165.495 187.349 171.342 191.149 176.805C198.254 187.015 213.105 214.454 193.018 244.027Z" fill="url(#paint1_linear_15_369)"/>
<g opacity="0.3">
<g opacity="0.3">
<path opacity="0.3" d="M127.058 92.5624C150.294 103.974 149.953 120.684 131.881 113.279L127.058 92.5624Z" fill="#270E4D" fill-opacity="0.8"/>
</g>
</g>
<path d="M133.295 107.351L123.887 108.88C123.712 108.911 123.536 108.931 123.36 108.942C122.875 108.983 122.379 108.952 121.894 108.88L112.537 107.362C111.226 107.145 110.493 105.73 111.05 104.532C114.902 96.3526 119.157 92.3766 123.36 92.5625C127.378 92.7484 131.323 96.7554 134.793 104.563C135.33 105.761 134.597 107.145 133.295 107.351Z" fill="#FFB127" fill-opacity="0.47"/>
<g opacity="0.6">
<g opacity="0.6">
<path opacity="0.6" d="M127.915 94.091C127.367 93.9154 126.82 93.8225 126.273 93.7915C122.08 93.6056 117.815 97.5816 113.963 105.761C113.684 106.35 113.725 106.979 113.983 107.496L113.002 107.341C111.691 107.124 110.957 105.709 111.515 104.511C115.367 96.332 119.622 92.356 123.825 92.5419C125.199 92.6142 126.572 93.1305 127.915 94.091Z" fill="white" fill-opacity="0.8"/>
</g>
</g>
<path d="M122.896 110.511C122.483 110.511 122.07 110.48 121.656 110.408L112.3 108.89C111.195 108.714 110.255 108.033 109.728 107.041C109.202 106.05 109.181 104.893 109.656 103.871C113.673 95.3302 118.186 91.0031 123.071 91.0031C123.102 91.0031 123.133 91.0031 123.164 91.0031C128.039 91.0547 132.428 95.4025 136.218 103.923C136.672 104.935 136.621 106.081 136.094 107.052C135.567 108.023 134.638 108.683 133.543 108.869L124.125 110.398C123.722 110.48 123.309 110.511 122.896 110.511ZM123.082 94.1116C119.601 94.1116 115.832 98.0463 112.465 105.193C112.383 105.368 112.434 105.523 112.475 105.596C112.517 105.668 112.61 105.802 112.796 105.833L122.152 107.351C122.648 107.434 123.144 107.434 123.639 107.351L133.058 105.823C133.244 105.792 133.337 105.668 133.378 105.596C133.419 105.523 133.471 105.368 133.399 105.193C130.238 98.0773 126.593 94.1426 123.133 94.1116C123.113 94.1116 123.092 94.1116 123.082 94.1116Z" fill="#270E4D" fill-opacity="0.61"/>
<g opacity="0.3">
<g opacity="0.3">
<path opacity="0.3" d="M133.295 107.351L123.887 108.88C123.712 108.911 123.536 108.931 123.36 108.942V92.5625C127.378 92.7484 131.323 96.7554 134.793 104.563C135.33 105.761 134.597 107.145 133.295 107.351Z" fill="#270E4D" fill-opacity="0.61"/>
</g>
</g>
<path d="M117.763 26.0233C104.854 2.09487 127.987 -9.27553 130.104 16.4499C137.839 2.96237 154.941 13.9197 134.462 26.0233" fill="#B7B4D0"/>
<g opacity="0.55">
<g opacity="0.55">
<path opacity="0.55" d="M127.068 5.70943C120.655 0.979507 113.033 10.8318 117.887 25.3314L117.763 26.013C107.281 6.58725 120.562 -4.56628 127.068 5.70943Z" fill="white" fill-opacity="0.8"/>
</g>
</g>
<g opacity="0.55">
<g opacity="0.55">
<path opacity="0.55" d="M143.964 13.4344C141.506 12.3087 137.747 12.9077 134.638 16.2124C133.223 17.7099 130.662 17.1006 130.166 15.0971L130.156 15.0558C134.793 9.56161 142.776 9.53062 143.964 13.4344Z" fill="white" fill-opacity="0.8"/>
</g>
</g>
<line x1="82.3152" y1="76.6081" x2="103.528" y2="97.8213" stroke="black"/>
<line x1="145.354" y1="76.6464" x2="166.567" y2="97.8596" stroke="black"/>
<line x1="103.354" y1="77.3536" x2="82.3536" y2="98.3536" stroke="black"/>
<line x1="166.354" y1="77.3536" x2="145.354" y2="98.3536" stroke="black"/>
<defs>
<linearGradient id="paint0_linear_15_369" x1="122.438" y1="21.1244" x2="122.438" y2="272.625" gradientUnits="userSpaceOnUse">
<stop stop-color="#B7B4D0"/>
<stop offset="1" stop-color="#B7B4D0" stop-opacity="0"/>
</linearGradient>
<linearGradient id="paint1_linear_15_369" x1="122.923" y1="53.9893" x2="122.923" y2="273" gradientUnits="userSpaceOnUse">
<stop stop-color="white"/>
<stop offset="1" stop-color="white" stop-opacity="0"/>
</linearGradient>
</defs>
</svg>
