<svg width="243" height="298" viewBox="0 0 243 298" fill="none" xmlns="http://www.w3.org/2000/svg">
<g opacity="0.3">
<g opacity="0.3">
<path opacity="0.4" d="M121.487 297.911C175.7 297.911 219.649 290.536 219.649 281.439C219.649 272.342 175.7 264.967 121.487 264.967C67.2742 264.967 23.3259 272.342 23.3259 281.439C23.3259 290.536 67.2742 297.911 121.487 297.911Z" fill="#270E4D"/>
</g>
</g>
<path d="M210.5 197.637C236.5 197.637 226.5 155.435 226.5 155.435C226.5 150.935 213.5 104.137 190.744 110.637L190.842 114.312C189.954 73.3123 182.457 43.2597 158.807 29.483C158.797 29.483 158.797 29.483 158.797 29.483H158.786C158.776 29.4727 158.776 29.4727 158.776 29.4727C149.203 23.9063 136.985 21.0043 121.484 21.1282C67.6784 20.7048 53.375 56.7059 52.1357 114.312C27.0093 107.3 -3.50002 197.637 30 197.637C48.1165 197.637 41.1165 161.642 41.1165 161.642L42.0666 157.583C29.8493 207.32 40.0011 240.615 68.7731 258.482C74.6907 262.158 81.3931 265.174 88.8495 267.559C110.052 274.313 132.916 274.313 154.118 267.559C198.361 253.442 216.02 216.697 200.344 155.466L200.385 155.435L201.841 161.642L204.72 177.637C204.72 177.637 201.841 197.637 210.5 197.637ZM190.842 114.694V114.642L190.853 114.694H190.842Z" fill="#49437C"/>
<g opacity="0.55">
<g opacity="0.55">
<path opacity="0.55" d="M173.368 42.4129C162.762 31.1457 147.251 25.0733 124.975 25.2488C72.0056 24.8357 57.3201 59.7112 55.6987 115.768C55.647 117.596 56.1118 119.361 55.6987 121.137L51.2269 137.249L52.1564 115.768C52.1564 115.768 54.7126 117.368 55.6987 121.137C49.4093 126.001 53.9451 125.637 51.2269 137.249C51.7168 125.637 52.1564 115.768 52.1564 115.768C52.1564 114.312 52.1564 114.312 52.1564 114.312C53.3957 56.7059 67.699 20.7048 121.505 21.1282C146.352 20.9423 162.773 28.5123 173.368 42.4129Z" fill="white"/>
</g>
</g>
<g opacity="0.55">
<g opacity="0.55">
<g opacity="0.55">
<path opacity="0.55" d="M190.842 114.653V114.705H190.853L190.842 114.653Z" fill="white"/>
</g>
</g>
</g>
<path d="M109.091 271.907C108.977 281.542 97.4315 283.185 91.6068 278.196C90.6774 279.446 89.7479 280.52 88.8081 281.439C86.753 283.443 84.6462 284.661 82.5704 285.167C76.973 286.531 71.4995 282.647 67.2137 274.571C66.9555 274.654 66.7076 274.737 66.4598 274.819C50.5557 279.787 44.0494 269.315 69.5063 258.926L87.9303 264.957L109.091 271.907Z" fill="#FFB127"/>
<g opacity="0.6">
<g opacity="0.6">
<path opacity="0.6" d="M109.091 271.907C109.081 272.454 109.163 271.959 109.081 272.454L71.8919 261.322C58.6523 266.723 54.0566 272.145 54.9344 275.408C49.6158 273.208 52.0531 266.051 69.496 258.936L109.091 271.907Z" fill="white"/>
</g>
</g>
<g opacity="0.3">
<g opacity="0.3">
<path opacity="0.3" d="M109.091 271.907C108.977 281.542 97.4315 283.185 91.6069 278.196C90.6774 279.446 89.7479 280.52 88.8082 281.439C86.753 283.443 84.6462 284.661 82.5704 285.167C85.4414 283.143 87.4966 279.973 88.1679 276.523C88.8598 272.96 88.0749 269.129 86.0301 266.124L87.92 264.967L109.091 271.907Z" fill="#270E4D"/>
</g>
</g>
<g opacity="0.6">
<g opacity="0.6">
<path opacity="0.6" d="M89.6033 278.62C89.5827 278.733 89.3245 279.88 88.8081 281.439C81.1866 288.844 73.0899 285.632 67.2137 274.582C66.9555 274.664 66.7076 274.747 66.4598 274.83L66.1603 270.296C67.5958 269.904 69.0932 270.616 69.6819 271.979C71.1484 275.315 74.4325 281.005 80.0506 281.801C87.8374 282.875 89.5104 278.847 89.6033 278.62Z" fill="white"/>
</g>
</g>
<path d="M176.518 274.572C169.929 286.995 160.501 289.515 152.135 278.196C146.301 283.185 134.775 281.542 134.651 271.907L146.352 268.076L171.158 259.948L174.236 258.936C200.085 269.48 192.97 280.117 176.518 274.572Z" fill="#FFB127"/>
<path d="M192.061 243.321C152.135 289.195 72.7491 273.642 51.8775 243.321C31.7805 213.867 46.6312 186.531 53.7468 176.359C57.5472 170.916 60.79 165.081 63.2273 158.916C69.6302 142.722 67.9262 131.92 65.7368 97.7984C63.5578 77.2677 75.4549 58.7817 89.8305 54.7024C99.4246 51.976 110.516 56.8505 118.623 73.0851C120.048 75.9458 124.128 75.9664 125.635 73.1367C134.94 55.7042 146.073 51.4803 156.184 55.3944C169.599 60.5787 180.267 78.2591 178.202 97.7881C176.012 131.91 174.298 142.712 180.701 158.905C183.148 165.081 186.391 170.906 190.192 176.348C197.297 186.521 212.148 213.857 192.061 243.321Z" fill="url(#paint0_linear_30_2119)"/>
<g opacity="0.3">
<g opacity="0.3">
<path opacity="0.3" d="M176.518 274.571C169.929 286.995 160.501 289.515 152.135 278.196C146.301 283.184 134.775 281.542 134.651 271.907L146.352 268.076C147.23 268.292 148.108 268.499 148.996 268.706C153.323 269.697 155.957 274.396 160.222 275.656C163.991 276.771 168.256 274.706 170.322 271.349C172.377 267.993 172.429 263.676 171.148 259.958C171.158 259.958 171.158 259.948 171.158 259.938L174.236 258.926C200.085 269.48 192.97 280.117 176.518 274.571Z" fill="#270E4D"/>
</g>
</g>
<path d="M105.009 92.9651C105.66 86.7096 107 76.4599 95.2214 81.0007C86.5 84.3629 83.7284 85.434 83.0778 91.6895C82.4272 97.945 86.8093 103.302 92.8655 103.654C98.9216 104.006 104.358 99.2206 105.009 92.9651Z" fill="#270E4D"/>
<path d="M93.6409 97.1857C90.833 97.0107 88.4331 97.9784 88.2806 99.3471C88.128 100.716 90.2806 101.967 93.0885 102.142C95.8964 102.317 98.2963 101.35 98.4488 99.9808C98.6014 98.6121 96.4488 97.3607 93.6409 97.1857Z" fill="white"/>
<path d="M150.992 103.689C157.049 103.352 161.431 98.217 160.78 92.2205C160.129 86.224 157.5 84.8629 148.636 81.9742C136 76.8629 138.198 87.4467 138.849 93.4432C139.499 99.4397 144.936 104.027 150.992 103.689Z" fill="#270E4D"/>
<path d="M155.842 99.7021C155.917 98.3866 153.695 97.2536 150.88 97.1716C148.064 97.0895 145.722 98.0894 145.647 99.4049C145.573 100.72 147.794 101.853 150.61 101.935C153.425 102.017 155.768 101.018 155.842 99.7021Z" fill="white"/>
<path d="M131.98 113.985L122.571 115.514C122.396 115.545 122.22 115.565 122.045 115.576C121.559 115.617 121.064 115.586 120.578 115.514L111.222 113.996C109.91 113.779 109.177 112.364 109.735 111.166C113.587 102.987 117.842 99.0106 122.045 99.1965C126.062 99.3824 130.007 103.389 133.477 111.197C134.014 112.395 133.281 113.779 131.98 113.985Z" fill="#FFB127"/>
<g opacity="0.6">
<g opacity="0.6">
<path opacity="0.6" d="M126.599 100.725C126.052 100.549 125.504 100.456 124.957 100.426C120.764 100.24 116.499 104.216 112.647 112.395C112.368 112.984 112.409 113.614 112.667 114.13L111.686 113.975C110.375 113.758 109.642 112.343 110.199 111.145C114.051 102.966 118.306 98.99 122.509 99.1759C123.883 99.2482 125.257 99.7646 126.599 100.725Z" fill="white"/>
</g>
</g>
<path d="M121.58 117.145C121.167 117.145 120.754 117.114 120.341 117.042L110.984 115.524C109.879 115.348 108.939 114.667 108.413 113.675C107.886 112.684 107.865 111.527 108.34 110.505C112.358 101.964 116.871 97.6371 121.756 97.6371C121.787 97.6371 121.818 97.6371 121.848 97.6371C126.723 97.6887 131.112 102.037 134.902 110.557C135.357 111.569 135.305 112.715 134.778 113.686C134.252 114.657 133.322 115.317 132.227 115.503L122.809 117.032C122.406 117.114 121.993 117.145 121.58 117.145ZM121.766 100.746C118.286 100.746 114.516 104.68 111.149 111.827C111.067 112.002 111.118 112.157 111.16 112.23C111.201 112.302 111.294 112.436 111.48 112.467L120.836 113.985C121.332 114.068 121.828 114.068 122.324 113.985L131.742 112.457C131.928 112.426 132.021 112.302 132.062 112.23C132.104 112.157 132.155 112.002 132.083 111.827C128.923 104.711 125.277 100.777 121.817 100.746C121.797 100.746 121.776 100.746 121.766 100.746Z" fill="#270E4D"/>
<g opacity="0.3">
<g opacity="0.3">
<path opacity="0.3" d="M131.98 113.985L122.571 115.514C122.396 115.545 122.22 115.565 122.045 115.576V99.1965C126.062 99.3824 130.007 103.389 133.477 111.197C134.014 112.395 133.281 113.779 131.98 113.985Z" fill="#270E4D"/>
</g>
</g>
<path d="M66.5837 269.542C66.6973 269.904 66.8522 270.317 67.0174 270.699C67.1827 271.091 67.3479 271.473 67.5338 271.855C67.8953 272.62 68.2877 273.374 68.7008 274.107C69.1242 274.871 68.8557 275.831 68.0915 276.265C67.3273 276.689 66.3668 276.42 65.9434 275.656C65.8401 275.47 65.7782 275.274 65.7575 275.067V275.036C65.6542 274.138 65.5819 273.239 65.5406 272.341C65.52 271.886 65.5096 271.442 65.5096 270.988C65.5096 270.533 65.52 270.1 65.5716 269.604C65.6026 269.315 65.8504 269.108 66.1396 269.129C66.3565 269.15 66.5217 269.294 66.5837 269.49V269.542Z" fill="#270E4D"/>
<path d="M90.3985 277.236C90.8943 276.771 91.3487 276.41 91.8444 276.038C92.3401 275.677 92.8358 275.325 93.3625 275.016C94.4159 274.396 95.5622 273.849 96.8222 273.663C97.101 273.621 97.3695 273.818 97.4108 274.107C97.4418 274.334 97.3179 274.551 97.1217 274.644L97.0907 274.664C96.1612 275.108 95.3763 275.831 94.6637 276.627C94.3126 277.019 93.9821 277.442 93.662 277.876C93.3522 278.3 93.032 278.775 92.8151 279.188C92.3917 279.952 91.4416 280.231 90.6774 279.807C89.9132 279.384 89.6343 278.434 90.0577 277.67C90.1404 277.525 90.2333 277.391 90.3572 277.288L90.3985 277.236Z" fill="#270E4D"/>
<path d="M178.181 269.604C178.222 270.1 178.233 270.534 178.243 270.988C178.243 271.442 178.233 271.897 178.212 272.341C178.171 273.239 178.098 274.138 177.995 275.036V275.057C177.892 275.924 177.117 276.544 176.239 276.451C175.372 276.348 174.752 275.573 174.845 274.695C174.866 274.479 174.938 274.282 175.041 274.107C175.455 273.374 175.847 272.62 176.208 271.855C176.394 271.473 176.56 271.091 176.725 270.699C176.88 270.317 177.035 269.904 177.159 269.542L177.179 269.49C177.272 269.222 177.561 269.067 177.84 269.16C178.026 269.222 178.171 269.408 178.181 269.604Z" fill="#270E4D"/>
<path d="M150.927 279.167C150.7 278.754 150.38 278.289 150.08 277.856C149.77 277.422 149.44 276.998 149.079 276.606C148.366 275.811 147.581 275.088 146.652 274.644L146.621 274.623C146.362 274.499 146.249 274.189 146.373 273.931C146.476 273.725 146.693 273.611 146.91 273.642C148.17 273.818 149.326 274.365 150.369 274.995C150.896 275.305 151.402 275.656 151.888 276.017C152.383 276.389 152.838 276.751 153.333 277.215L153.375 277.246C154.005 277.845 154.036 278.837 153.447 279.467C152.858 280.097 151.857 280.128 151.227 279.539C151.103 279.446 150.999 279.312 150.927 279.167Z" fill="#270E4D"/>
<path d="M116.806 26.0234C103.896 2.09493 127.03 -9.27547 129.147 16.4499C136.882 2.96243 153.984 13.9197 133.505 26.0234" fill="#49437C"/>
<g opacity="0.55">
<g opacity="0.55">
<path opacity="0.55" d="M126.11 5.70949C119.697 0.979568 112.076 10.8319 116.929 25.3314L116.806 26.013C106.323 6.58731 119.604 -4.56621 126.11 5.70949Z" fill="white"/>
</g>
</g>
<g opacity="0.55">
<g opacity="0.55">
<path opacity="0.55" d="M143.006 13.4344C140.548 12.3087 136.789 12.9077 133.68 16.2124C132.266 17.7099 129.704 17.1006 129.209 15.0971L129.198 15.0558C133.835 9.56161 141.818 9.53062 143.006 13.4344Z" fill="white"/>
</g>
</g>
<defs>
<linearGradient id="paint0_linear_30_2119" x1="121.966" y1="53.9893" x2="121.966" y2="272.186" gradientUnits="userSpaceOnUse">
<stop offset="0.062616" stop-color="#9747FF"/>
<stop offset="0.220232" stop-color="white"/>
</linearGradient>
</defs>
</svg>
