<svg width="244" height="299" viewBox="0 0 244 299" fill="none" xmlns="http://www.w3.org/2000/svg">
<g opacity="0.3">
<g opacity="0.3">
<path opacity="0.4" d="M122.402 298.274C176.615 298.274 220.564 290.899 220.564 281.802C220.564 272.705 176.615 265.33 122.402 265.33C68.1892 265.33 24.2408 272.705 24.2408 281.802C24.2408 290.899 68.1892 298.274 122.402 298.274Z" fill="#270E4D"/>
</g>
</g>
<path d="M211.415 198C237.415 198 227.415 155.798 227.415 155.798C227.415 151.298 214.415 104.5 191.659 111L191.757 114.675C190.869 73.6752 183.371 43.6226 159.722 29.8459C159.712 29.8459 159.712 29.8459 159.712 29.8459H159.701C159.691 29.8356 159.691 29.8356 159.691 29.8356C150.117 24.2692 137.9 21.3672 122.399 21.4911C68.5933 21.0677 54.2899 57.0688 53.0507 114.675C27.9242 107.662 -2.58509 198 30.9149 198C49.0314 198 42.0314 162.005 42.0314 162.005L42.9815 157.946C30.7643 207.683 40.916 240.978 69.688 258.844C75.6056 262.521 82.308 265.537 89.7644 267.922C110.966 274.676 133.831 274.676 155.033 267.922C199.276 253.805 216.935 217.06 201.258 155.829L201.3 155.798L202.756 162.005L205.635 178C205.635 178 202.756 198 211.415 198ZM191.757 115.057V115.005L191.768 115.057H191.757Z" fill="#49437C"/>
<g opacity="0.55">
<g opacity="0.55">
<path opacity="0.55" d="M174.283 42.7758C163.677 31.5086 148.166 25.4362 125.889 25.6117C72.9205 25.1986 58.235 60.0741 56.6136 116.131C56.562 117.959 57.0267 119.724 56.6136 121.5L52.1419 137.612L53.0713 116.131C53.0713 116.131 55.6275 117.731 56.6136 121.5C50.3243 126.364 54.86 126 52.1419 137.612C52.6317 126 53.0713 116.131 53.0713 116.131C53.0713 114.675 53.0713 114.675 53.0713 114.675C54.3106 57.0688 68.614 21.0677 122.419 21.4911C147.267 21.3052 163.688 28.8752 174.283 42.7758Z" fill="white"/>
</g>
</g>
<g opacity="0.55">
<g opacity="0.55">
<g opacity="0.55">
<path opacity="0.55" d="M191.757 115.016V115.068H191.768L191.757 115.016Z" fill="white"/>
</g>
</g>
</g>
<path d="M110.006 272.27C109.892 281.905 98.3464 283.547 92.5218 278.559C91.5923 279.809 90.6628 280.883 89.723 281.802C87.6679 283.806 85.5611 285.024 83.4853 285.53C77.8879 286.894 72.4144 283.01 68.1286 274.934C67.8704 275.017 67.6225 275.1 67.3747 275.182C51.4706 280.15 44.9643 269.678 70.4212 259.288L88.8452 265.32L110.006 272.27Z" fill="#FFB127"/>
<g opacity="0.6">
<g opacity="0.6">
<path opacity="0.6" d="M110.006 272.27C109.996 272.817 110.078 272.322 109.996 272.817L72.8069 261.684C59.5672 267.086 54.9715 272.508 55.8494 275.771C50.5308 273.571 52.968 266.414 70.4109 259.299L110.006 272.27Z" fill="white"/>
</g>
</g>
<g opacity="0.3">
<g opacity="0.3">
<path opacity="0.3" d="M110.006 272.27C109.892 281.905 98.3464 283.547 92.5218 278.559C91.5923 279.809 90.6629 280.883 89.7231 281.802C87.6679 283.806 85.5612 285.024 83.4854 285.53C86.3564 283.506 88.4115 280.336 89.0828 276.886C89.7747 273.323 88.9898 269.492 86.945 266.487L88.8349 265.33L110.006 272.27Z" fill="#270E4D"/>
</g>
</g>
<g opacity="0.6">
<g opacity="0.6">
<path opacity="0.6" d="M90.5183 278.983C90.4976 279.096 90.2394 280.243 89.7231 281.802C82.1015 289.207 74.0048 285.995 68.1286 274.945C67.8704 275.027 67.6225 275.11 67.3747 275.193L67.0752 270.659C68.5107 270.266 70.0082 270.979 70.5968 272.342C72.0633 275.678 75.3474 281.368 80.9655 282.164C88.7523 283.238 90.4253 279.21 90.5183 278.983Z" fill="white"/>
</g>
</g>
<path d="M177.433 274.934C170.844 287.358 161.416 289.878 153.05 278.559C147.215 283.547 135.69 281.905 135.566 272.27L147.267 268.439L172.073 260.311L175.151 259.299C201 269.843 193.885 280.48 177.433 274.934Z" fill="#FFB127"/>
<path d="M192.976 243.684C153.05 289.558 73.664 274.005 52.7925 243.684C32.6955 214.23 47.5462 186.894 54.6617 176.721C58.4622 171.279 61.705 165.444 64.1422 159.279C70.5452 143.085 68.8412 132.283 66.6518 98.1613C64.4727 77.6305 76.3698 59.1446 90.7455 55.0653C100.34 52.3389 111.431 57.2134 119.538 73.448C120.963 76.3087 125.043 76.3293 126.55 73.4996C135.855 56.0671 146.988 51.8432 157.099 55.7572C170.514 60.9416 181.182 78.622 179.117 98.151C176.927 132.273 175.213 143.075 181.616 159.268C184.063 165.444 187.306 171.269 191.107 176.711C198.212 186.884 213.063 214.22 192.976 243.684Z" fill="white"/>
<g opacity="0.3">
<g opacity="0.3">
<path opacity="0.3" d="M177.433 274.934C170.844 287.358 161.416 289.878 153.05 278.559C147.215 283.547 135.69 281.905 135.566 272.27L147.267 268.438C148.145 268.655 149.023 268.862 149.911 269.068C154.238 270.06 156.872 274.759 161.137 276.019C164.906 277.134 169.171 275.069 171.237 271.712C173.292 268.356 173.344 264.039 172.063 260.321C172.073 260.321 172.073 260.311 172.073 260.301L175.151 259.288C201 269.843 193.885 280.48 177.433 274.934Z" fill="#270E4D"/>
</g>
</g>
<path d="M137.755 108.95L130.052 114.564C129.909 114.671 129.762 114.769 129.61 114.858C129.195 115.114 128.739 115.31 128.273 115.465L119.24 118.337C117.972 118.736 116.679 117.806 116.635 116.485C116.377 107.448 118.376 101.978 122.21 100.245C125.878 98.5961 131.208 100.389 137.831 105.786C138.851 106.612 138.822 108.178 137.755 108.95Z" fill="#FFB127"/>
<g opacity="0.6">
<g opacity="0.6">
<path opacity="0.6" d="M126.964 99.5512C126.396 99.6419 125.866 99.8062 125.364 100.026C121.539 101.754 119.53 107.228 119.789 116.266C119.806 116.917 120.127 117.46 120.591 117.804L119.646 118.109C118.377 118.508 117.084 117.577 117.04 116.256C116.782 107.219 118.782 101.75 122.615 100.017C123.873 99.4608 125.332 99.3009 126.964 99.5512Z" fill="white"/>
</g>
</g>
<path d="M129.904 116.468C129.536 116.655 129.153 116.814 128.752 116.936L119.719 119.808C118.654 120.151 117.507 119.967 116.59 119.321C115.672 118.674 115.131 117.652 115.093 116.525C114.818 107.091 116.89 101.191 121.248 98.9846C121.275 98.9706 121.303 98.9566 121.331 98.9426C125.703 96.7865 131.583 98.6825 138.813 104.571C139.676 105.269 140.147 106.315 140.116 107.419C140.085 108.523 139.554 109.532 138.661 110.193L130.949 115.811C130.627 116.067 130.273 116.281 129.904 116.468ZM122.661 101.753C119.556 103.325 117.971 108.539 118.196 116.435C118.202 116.629 118.318 116.744 118.387 116.79C118.457 116.836 118.6 116.914 118.78 116.857L127.813 113.985C128.293 113.834 128.735 113.61 129.14 113.313L136.852 107.694C137.004 107.583 137.031 107.43 137.035 107.347C137.039 107.264 137.015 107.102 136.872 106.978C130.838 102.058 125.808 100.194 122.707 101.73C122.689 101.739 122.67 101.748 122.661 101.753Z" fill="#270E4D"/>
<g opacity="0.3">
<g opacity="0.3">
<path opacity="0.3" d="M137.755 108.95L130.052 114.564C129.909 114.671 129.762 114.769 129.61 114.858L122.21 100.245C125.878 98.5961 131.208 100.389 137.831 105.786C138.851 106.612 138.822 108.178 137.755 108.95Z" fill="#270E4D"/>
</g>
</g>
<path d="M67.4986 269.905C67.6122 270.266 67.7671 270.68 67.9323 271.062C68.0976 271.454 68.2628 271.836 68.4487 272.218C68.8102 272.983 69.2026 273.736 69.6157 274.47C70.0391 275.234 69.7706 276.194 69.0064 276.628C68.2422 277.052 67.2817 276.783 66.8583 276.019C66.755 275.833 66.6931 275.637 66.6724 275.43V275.399C66.5691 274.501 66.4968 273.602 66.4555 272.704C66.4349 272.249 66.4246 271.805 66.4246 271.351C66.4246 270.896 66.4349 270.463 66.4865 269.967C66.5175 269.678 66.7654 269.471 67.0545 269.492C67.2714 269.513 67.4366 269.657 67.4986 269.853V269.905Z" fill="#270E4D"/>
<path d="M91.3135 277.599C91.8092 277.134 92.2636 276.773 92.7593 276.401C93.255 276.039 93.7507 275.688 94.2774 275.378C95.3308 274.759 96.4772 274.211 97.7371 274.026C98.0159 273.984 98.2845 274.18 98.3258 274.47C98.3567 274.697 98.2328 274.914 98.0366 275.007L98.0056 275.027C97.0762 275.471 96.2913 276.194 95.5787 276.99C95.2276 277.382 94.8971 277.805 94.5769 278.239C94.2671 278.663 93.947 279.138 93.7301 279.551C93.3067 280.315 92.3565 280.594 91.5923 280.17C90.8281 279.747 90.5493 278.797 90.9727 278.033C91.0553 277.888 91.1482 277.754 91.2722 277.65L91.3135 277.599Z" fill="#270E4D"/>
<path d="M179.096 269.967C179.137 270.463 179.148 270.896 179.158 271.351C179.158 271.805 179.148 272.26 179.127 272.704C179.086 273.602 179.013 274.501 178.91 275.399V275.42C178.807 276.287 178.032 276.907 177.154 276.814C176.287 276.711 175.667 275.936 175.76 275.058C175.781 274.841 175.853 274.645 175.956 274.47C176.37 273.736 176.762 272.983 177.123 272.218C177.309 271.836 177.475 271.454 177.64 271.062C177.795 270.68 177.95 270.266 178.074 269.905L178.094 269.853C178.187 269.585 178.476 269.43 178.755 269.523C178.941 269.585 179.086 269.771 179.096 269.967Z" fill="#270E4D"/>
<path d="M151.842 279.53C151.615 279.117 151.295 278.652 150.995 278.218C150.685 277.785 150.355 277.361 149.993 276.969C149.281 276.174 148.496 275.451 147.567 275.007L147.536 274.986C147.277 274.862 147.164 274.552 147.288 274.294C147.391 274.088 147.608 273.974 147.825 274.005C149.085 274.18 150.241 274.728 151.284 275.358C151.811 275.668 152.317 276.019 152.802 276.38C153.298 276.752 153.753 277.113 154.248 277.578L154.29 277.609C154.92 278.208 154.951 279.2 154.362 279.83C153.773 280.46 152.772 280.491 152.142 279.902C152.018 279.809 151.914 279.675 151.842 279.53Z" fill="#270E4D"/>
<path d="M117.721 26.3863C104.811 2.4578 127.945 -8.9126 130.062 16.8128C137.797 3.3253 154.899 14.2826 134.42 26.3863" fill="#49437C"/>
<g opacity="0.55">
<g opacity="0.55">
<path opacity="0.55" d="M127.025 6.07239C120.612 1.34247 112.991 11.1948 117.844 25.6943L117.72 26.3759C107.238 6.95021 120.519 -4.20331 127.025 6.07239Z" fill="white"/>
</g>
</g>
<g opacity="0.55">
<g opacity="0.55">
<path opacity="0.55" d="M143.921 13.7973C141.463 12.6716 137.704 13.2706 134.595 16.5753C133.181 18.0728 130.619 17.4635 130.124 15.46L130.113 15.4187C134.75 9.92451 142.733 9.89352 143.921 13.7973Z" fill="white"/>
</g>
</g>
<path d="M207.032 87.181C207.673 87.2592 208.321 87.3138 208.977 87.3451C209.649 87.3763 210.259 87.392 210.806 87.392C211.446 87.392 212.071 87.3763 212.681 87.3451C213.306 87.3295 213.962 87.2982 214.649 87.2513C215.243 87.2201 215.915 87.181 216.665 87.1342C217.415 87.0873 218.196 87.0404 219.009 86.9935L219.149 89.0326C219.149 89.1732 219.157 89.3529 219.173 89.5717C219.173 89.7592 219.173 89.9935 219.173 90.2748C219.188 90.556 219.204 90.8842 219.22 91.2592C218.657 91.7435 218.149 92.2045 217.696 92.642C217.259 93.0638 216.884 93.4388 216.571 93.767C216.196 94.1576 215.868 94.517 215.587 94.8451C215.227 95.267 214.845 95.7826 214.438 96.392C214.032 96.9857 213.649 97.5717 213.29 98.1498C212.946 98.7123 212.665 99.2201 212.446 99.6732C212.227 100.111 212.134 100.384 212.165 100.494C212.181 100.572 212.337 100.619 212.634 100.634C212.931 100.634 213.29 100.619 213.712 100.587C214.149 100.556 214.626 100.509 215.141 100.447C215.673 100.369 216.165 100.29 216.618 100.212C217.087 100.119 217.501 100.025 217.86 99.931C218.22 99.8373 218.454 99.7435 218.563 99.6498C218.704 99.5248 218.86 99.2982 219.032 98.9701C219.188 98.6888 219.36 98.2982 219.548 97.7982C219.751 97.2826 219.977 96.5951 220.227 95.7357C220.243 96.3763 220.251 96.9232 220.251 97.3763C220.266 97.8295 220.29 98.2123 220.321 98.5248C220.337 98.8842 220.36 99.181 220.391 99.4154C220.407 99.6654 220.438 99.9467 220.485 100.259C220.516 100.525 220.556 100.861 220.602 101.267C220.649 101.673 220.712 102.126 220.79 102.626C219.665 102.486 218.72 102.392 217.954 102.345C217.188 102.283 216.571 102.244 216.102 102.228C215.556 102.212 215.118 102.212 214.79 102.228C214.446 102.275 213.977 102.345 213.384 102.439C212.884 102.517 212.22 102.642 211.391 102.814C210.563 102.97 209.524 103.181 208.274 103.447C208.243 103.15 208.212 102.892 208.181 102.673C208.149 102.454 208.118 102.259 208.087 102.087C208.056 101.915 208.024 101.751 207.993 101.595C207.962 101.454 207.923 101.259 207.876 101.009C207.845 100.79 207.79 100.525 207.712 100.212C207.649 99.8842 207.571 99.4779 207.477 98.9935C208.415 98.0248 209.188 97.2123 209.798 96.556C210.423 95.8842 210.923 95.3373 211.298 94.9154C211.735 94.4154 212.079 94.017 212.329 93.7201C212.563 93.4232 212.868 93.0638 213.243 92.642C213.556 92.2826 213.962 91.8373 214.462 91.306C214.962 90.7592 215.563 90.1107 216.266 89.3607C215.548 89.3295 214.876 89.3295 214.251 89.3607C213.641 89.392 213.11 89.4388 212.657 89.5013C212.126 89.5638 211.634 89.6498 211.181 89.7592C210.759 89.8842 210.329 90.0873 209.891 90.3685C209.516 90.6029 209.11 90.931 208.673 91.3529C208.235 91.7748 207.821 92.3217 207.431 92.9935C207.399 92.4779 207.376 92.0404 207.36 91.681C207.345 91.3217 207.329 91.0248 207.313 90.7904C207.298 90.5248 207.282 90.306 207.266 90.1342C207.266 89.9623 207.251 89.7357 207.22 89.4545C207.188 89.2201 207.157 88.9232 207.126 88.5638C207.095 88.1888 207.063 87.7279 207.032 87.181Z" fill="#49437C"/>
<path d="M197.003 64.2709C197.483 64.3295 197.97 64.3705 198.462 64.3939C198.966 64.4174 199.423 64.4291 199.833 64.4291C200.313 64.4291 200.782 64.4174 201.239 64.3939C201.708 64.3822 202.2 64.3588 202.716 64.3236C203.161 64.3002 203.665 64.2709 204.227 64.2357C204.79 64.2006 205.376 64.1654 205.985 64.1302L206.091 65.6595C206.091 65.765 206.097 65.8998 206.108 66.0638C206.108 66.2045 206.108 66.3802 206.108 66.5912C206.12 66.8021 206.132 67.0482 206.143 67.3295C205.722 67.6927 205.341 68.0385 205.001 68.3666C204.673 68.683 204.391 68.9642 204.157 69.2103C203.876 69.5033 203.63 69.7728 203.419 70.0189C203.149 70.3353 202.862 70.722 202.557 71.1791C202.253 71.6244 201.966 72.0638 201.696 72.4974C201.438 72.9193 201.227 73.3002 201.063 73.64C200.899 73.9681 200.829 74.1732 200.852 74.2552C200.864 74.3138 200.981 74.349 201.204 74.3607C201.427 74.3607 201.696 74.349 202.013 74.3256C202.341 74.3021 202.698 74.267 203.085 74.2201C203.483 74.1615 203.852 74.1029 204.192 74.0443C204.544 73.974 204.854 73.9037 205.124 73.8334C205.393 73.7631 205.569 73.6927 205.651 73.6224C205.757 73.5287 205.874 73.3588 206.003 73.1127C206.12 72.9017 206.249 72.6088 206.39 72.2338C206.542 71.847 206.712 71.3314 206.899 70.6869C206.911 71.1674 206.917 71.5775 206.917 71.9174C206.929 72.2572 206.946 72.5443 206.97 72.7787C206.981 73.0482 206.999 73.2709 207.022 73.4467C207.034 73.6342 207.057 73.8451 207.093 74.0795C207.116 74.2787 207.145 74.5306 207.181 74.8353C207.216 75.14 207.263 75.4799 207.321 75.8549C206.477 75.7494 205.768 75.6791 205.194 75.6439C204.62 75.597 204.157 75.5677 203.806 75.556C203.395 75.5443 203.067 75.5443 202.821 75.556C202.563 75.5912 202.212 75.6439 201.766 75.7142C201.391 75.7728 200.893 75.8666 200.272 75.9955C199.651 76.1127 198.872 76.2709 197.934 76.4701C197.911 76.2474 197.888 76.0541 197.864 75.89C197.841 75.726 197.817 75.5795 197.794 75.4506C197.77 75.3217 197.747 75.1986 197.724 75.0814C197.7 74.976 197.671 74.8295 197.636 74.642C197.612 74.4779 197.571 74.2787 197.513 74.0443C197.466 73.7982 197.407 73.4935 197.337 73.1302C198.04 72.4037 198.62 71.7943 199.077 71.3021C199.546 70.7982 199.921 70.3881 200.202 70.0717C200.53 69.6967 200.788 69.3978 200.975 69.1752C201.151 68.9525 201.38 68.683 201.661 68.3666C201.895 68.097 202.2 67.7631 202.575 67.3646C202.95 66.9545 203.401 66.4681 203.929 65.9056C203.39 65.8822 202.886 65.8822 202.417 65.9056C201.96 65.9291 201.561 65.9642 201.222 66.0111C200.823 66.058 200.454 66.1224 200.114 66.2045C199.798 66.2982 199.475 66.4506 199.147 66.6615C198.866 66.8373 198.561 67.0834 198.233 67.3998C197.905 67.7162 197.595 68.1263 197.302 68.6302C197.278 68.2435 197.261 67.9154 197.249 67.6459C197.237 67.3763 197.225 67.1537 197.214 66.9779C197.202 66.7787 197.19 66.6146 197.179 66.4857C197.179 66.3568 197.167 66.1869 197.143 65.976C197.12 65.8002 197.097 65.5775 197.073 65.308C197.05 65.0267 197.026 64.681 197.003 64.2709Z" fill="#49437C"/>
<path d="M219.983 49.9974C220.357 50.043 220.735 50.0749 221.118 50.0931C221.51 50.1114 221.865 50.1205 222.184 50.1205C222.558 50.1205 222.923 50.1114 223.278 50.0931C223.643 50.084 224.026 50.0658 224.427 50.0385C224.773 50.0202 225.165 49.9974 225.602 49.9701C226.04 49.9427 226.496 49.9154 226.97 49.8881L227.052 51.0775C227.052 51.1595 227.056 51.2644 227.065 51.392C227.065 51.5013 227.065 51.6381 227.065 51.8021C227.074 51.9662 227.084 52.1576 227.093 52.3763C226.765 52.6589 226.468 52.9278 226.204 53.183C225.949 53.4291 225.73 53.6478 225.548 53.8392C225.329 54.0671 225.138 54.2767 224.974 54.4681C224.764 54.7142 224.541 55.015 224.304 55.3705C224.067 55.7168 223.843 56.0586 223.634 56.3959C223.433 56.724 223.269 57.0202 223.141 57.2845C223.014 57.5398 222.959 57.6993 222.977 57.7631C222.987 57.8086 223.078 57.836 223.251 57.8451C223.424 57.8451 223.634 57.836 223.88 57.8177C224.135 57.7995 224.413 57.7722 224.714 57.7357C225.024 57.6901 225.311 57.6446 225.575 57.599C225.849 57.5443 226.09 57.4896 226.3 57.4349C226.509 57.3802 226.646 57.3256 226.71 57.2709C226.792 57.198 226.883 57.0658 226.983 56.8744C227.074 56.7103 227.175 56.4825 227.284 56.1908C227.403 55.89 227.535 55.489 227.681 54.9877C227.69 55.3614 227.694 55.6804 227.694 55.9447C227.703 56.209 227.717 56.4323 227.735 56.6146C227.744 56.8243 227.758 56.9974 227.776 57.1342C227.785 57.28 227.804 57.4441 227.831 57.6263C227.849 57.7813 227.872 57.9773 227.899 58.2142C227.927 58.4512 227.963 58.7155 228.009 59.0072C227.352 58.9252 226.801 58.8705 226.354 58.8431C225.908 58.8067 225.548 58.7839 225.274 58.7748C224.955 58.7657 224.7 58.7657 224.509 58.7748C224.308 58.8021 224.035 58.8431 223.688 58.8978C223.397 58.9434 223.009 59.0163 222.526 59.1166C222.043 59.2077 221.437 59.3308 220.708 59.4857C220.69 59.3125 220.671 59.1622 220.653 59.0345C220.635 58.9069 220.617 58.793 220.599 58.6927C220.58 58.5925 220.562 58.4968 220.544 58.4056C220.526 58.3236 220.503 58.2097 220.475 58.0638C220.457 57.9362 220.425 57.7813 220.38 57.599C220.343 57.4076 220.298 57.1706 220.243 56.8881C220.79 56.323 221.241 55.849 221.597 55.4662C221.961 55.0743 222.253 54.7552 222.472 54.5092C222.727 54.2175 222.927 53.9851 223.073 53.8119C223.21 53.6387 223.388 53.4291 223.606 53.183C223.789 52.9733 224.026 52.7136 224.317 52.4037C224.609 52.0847 224.96 51.7064 225.37 51.2689C224.951 51.2507 224.559 51.2507 224.194 51.2689C223.839 51.2872 223.529 51.3145 223.265 51.351C222.955 51.3874 222.668 51.4375 222.403 51.5013C222.157 51.5743 221.906 51.6927 221.651 51.8568C221.432 51.9935 221.196 52.1849 220.94 52.431C220.685 52.6771 220.444 52.9961 220.216 53.3881C220.197 53.0873 220.184 52.8321 220.175 52.6224C220.166 52.4128 220.156 52.2396 220.147 52.1029C220.138 51.948 220.129 51.8204 220.12 51.7201C220.12 51.6198 220.111 51.4877 220.093 51.3236C220.074 51.1869 220.056 51.0137 220.038 50.8041C220.02 50.5853 220.002 50.3164 219.983 49.9974Z" fill="#49437C"/>
<path d="M202.964 36.724C203.231 36.7566 203.501 36.7793 203.774 36.7924C204.054 36.8054 204.308 36.8119 204.536 36.8119C204.803 36.8119 205.063 36.8054 205.317 36.7924C205.578 36.7858 205.851 36.7728 206.138 36.7533C206.385 36.7403 206.665 36.724 206.977 36.7045C207.29 36.6849 207.615 36.6654 207.954 36.6459L208.013 37.4955C208.013 37.5541 208.016 37.6289 208.022 37.7201C208.022 37.7982 208.022 37.8959 208.022 38.0131C208.029 38.1302 208.035 38.267 208.042 38.4232C207.807 38.625 207.596 38.8171 207.407 38.9994C207.225 39.1752 207.069 39.3314 206.938 39.4681C206.782 39.6309 206.645 39.7806 206.528 39.9174C206.378 40.0931 206.219 40.308 206.05 40.5619C205.88 40.8093 205.721 41.0534 205.571 41.2943C205.428 41.5287 205.311 41.7403 205.22 41.9291C205.128 42.1114 205.089 42.2253 205.102 42.2709C205.109 42.3034 205.174 42.323 205.298 42.3295C205.421 42.3295 205.571 42.323 205.747 42.3099C205.929 42.2969 206.128 42.2774 206.343 42.2513C206.564 42.2188 206.769 42.1862 206.958 42.1537C207.153 42.1146 207.326 42.0756 207.475 42.0365C207.625 41.9974 207.723 41.9584 207.768 41.9193C207.827 41.8672 207.892 41.7728 207.964 41.6361C208.029 41.5189 208.1 41.3562 208.179 41.1478C208.263 40.933 208.358 40.6465 208.462 40.2885C208.468 40.5554 208.472 40.7832 208.472 40.972C208.478 41.1608 208.488 41.3204 208.501 41.4506C208.507 41.6003 208.517 41.724 208.53 41.8217C208.537 41.9258 208.55 42.043 208.569 42.1732C208.582 42.2839 208.599 42.4239 208.618 42.5931C208.638 42.7624 208.664 42.9512 208.696 43.1595C208.227 43.101 207.834 43.0619 207.515 43.0424C207.196 43.0163 206.938 43 206.743 42.9935C206.515 42.987 206.333 42.987 206.196 42.9935C206.053 43.0131 205.858 43.0424 205.61 43.0814C205.402 43.114 205.125 43.1661 204.78 43.2377C204.435 43.3028 204.002 43.3907 203.481 43.5013C203.468 43.3776 203.455 43.2702 203.442 43.1791C203.429 43.0879 203.416 43.0066 203.403 42.9349C203.39 42.8633 203.377 42.795 203.364 42.7299C203.351 42.6713 203.335 42.5899 203.315 42.4857C203.302 42.3946 203.28 42.2839 203.247 42.1537C203.221 42.017 203.188 41.8477 203.149 41.6459C203.54 41.2422 203.862 40.9037 204.116 40.6302C204.377 40.3503 204.585 40.1224 204.741 39.9467C204.923 39.7383 205.067 39.5723 205.171 39.4486C205.268 39.3249 205.395 39.1752 205.552 38.9994C205.682 38.8497 205.851 38.6641 206.059 38.4427C206.268 38.2149 206.518 37.9447 206.811 37.6322C206.512 37.6192 206.232 37.6192 205.972 37.6322C205.718 37.6452 205.496 37.6648 205.307 37.6908C205.086 37.7168 204.881 37.7526 204.692 37.7982C204.516 37.8503 204.337 37.9349 204.155 38.0521C203.999 38.1498 203.83 38.2865 203.647 38.4623C203.465 38.6381 203.293 38.8659 203.13 39.1459C203.117 38.931 203.107 38.7487 203.1 38.599C203.094 38.4493 203.087 38.3256 203.081 38.2279C203.074 38.1172 203.068 38.0261 203.061 37.9545C203.061 37.8829 203.055 37.7885 203.042 37.6713C203.029 37.5736 203.016 37.4499 203.003 37.3002C202.99 37.1439 202.977 36.9519 202.964 36.724Z" fill="#49437C"/>
<path d="M147.915 88.5404V88.5404C153.365 92.1737 160.465 92.1737 165.915 88.5404V88.5404" stroke="#49437C" stroke-width="3" stroke-linecap="round"/>
<path d="M84.9149 88.5404V88.5404C90.3649 92.1737 97.465 92.1737 102.915 88.5404V88.5404" stroke="#49437C" stroke-width="3" stroke-linecap="round"/>
</svg>
