<svg width="243" height="298" viewBox="0 0 243 298" fill="none" xmlns="http://www.w3.org/2000/svg">
<g opacity="0.3">
<g opacity="0.3">
<path opacity="0.4" d="M121.487 297.637C175.7 297.637 219.649 290.262 219.649 281.165C219.649 272.068 175.7 264.693 121.487 264.693C67.2742 264.693 23.3259 272.068 23.3259 281.165C23.3259 290.262 67.2742 297.637 121.487 297.637Z" fill="#270E4D"/>
</g>
</g>
<path d="M241.064 110.32C241.013 110.113 240.951 109.927 240.889 109.731C240.321 107.976 239.298 106.519 237.821 105.383C231.109 100.199 215.979 107.015 190.853 114.038H190.842C189.954 73.0381 182.457 42.9855 158.807 29.2089C158.797 29.2089 158.797 29.2089 158.797 29.2089H158.786C158.776 29.1985 158.776 29.1985 158.776 29.1985C149.202 23.6321 136.985 20.7301 121.484 20.854C67.6784 20.4306 53.375 56.4317 52.1358 114.038C27.0093 107.025 11.8591 100.199 5.14633 105.383C-4.97447 113.201 5.97253 136.386 41.1165 161.368L42.0666 157.309L42.0872 157.32C29.87 207.056 40.0011 240.341 68.7731 258.207C74.6907 261.884 81.3931 264.899 88.8495 267.285C110.052 274.039 132.916 274.039 154.118 267.285C198.361 253.168 216.02 216.423 200.344 155.192L200.385 155.161L201.841 161.368C227.783 142.923 240.538 125.47 241.374 114.44V114.43C241.488 112.933 241.384 111.559 241.064 110.32ZM190.842 114.42V114.368L190.853 114.42H190.842Z" fill="#49437C"/>
<g opacity="0.55">
<g opacity="0.55">
<path opacity="0.55" d="M237.821 105.383C231.418 100.426 213.976 107.376 190.842 114.038C190.894 115.7 191.689 116.888 191.73 118.602C216.051 111.807 233.618 104.753 240.641 109.029C240.031 107.593 239.092 106.364 237.821 105.383ZM203.875 159.271L203.834 159.292C203.875 159.478 203.927 159.653 203.968 159.829C203.979 159.829 203.999 159.819 204.01 159.808L203.875 159.271ZM44.6278 165.457C45.2681 162.586 45.8464 159.695 46.3215 156.793C46.59 155.13 45.2474 153.633 43.5641 153.715L43.3988 153.726C43.3988 153.726 40.9822 162.08 40.8376 162.752C32.5861 200.591 37.853 228.444 54.8519 246.816C40.4555 228.248 36.5621 201.262 44.6278 165.457Z" fill="white"/>
</g>
</g>
<g opacity="0.55">
<g opacity="0.55">
<path opacity="0.55" d="M173.368 42.1387C162.762 30.8716 147.251 24.7991 124.975 24.9746C72.0056 24.5615 57.3201 59.437 55.6987 115.494C55.6471 117.322 55.3992 119.139 54.9861 120.916L51.227 136.975L52.0635 117.146C29.0645 110.516 15.0296 104.567 8.64734 109.494C2.35799 114.358 4.20658 125.15 14.9367 138.617C1.17034 123.239 -1.7523 110.723 5.16703 105.383C11.8798 100.199 27.0197 107.025 52.1564 114.038C53.3957 56.4317 67.6991 20.4306 121.505 20.854C146.352 20.6681 162.773 28.2381 173.368 42.1387Z" fill="white"/>
</g>
</g>
<g opacity="0.55">
<g opacity="0.55">
<g opacity="0.55">
<path opacity="0.55" d="M190.842 114.378V114.431H190.853L190.842 114.378Z" fill="white"/>
</g>
</g>
</g>
<path d="M109.091 271.633C108.977 281.268 97.4315 282.91 91.6068 277.922C90.6774 279.172 89.7479 280.246 88.8081 281.165C86.753 283.169 84.6462 284.387 82.5704 284.893C76.973 286.256 71.4995 282.373 67.2137 274.297C66.9555 274.38 66.7076 274.463 66.4598 274.545C50.5557 279.513 44.0494 269.041 69.5063 258.651L87.9303 264.683L109.091 271.633Z" fill="#FFB127"/>
<g opacity="0.6">
<g opacity="0.6">
<path opacity="0.6" d="M109.091 271.633C109.081 272.18 109.163 271.685 109.081 272.18L71.892 261.047C58.6523 266.449 54.0567 271.87 54.9345 275.134C49.6159 272.934 52.0531 265.777 69.496 258.662L109.091 271.633Z" fill="white"/>
</g>
</g>
<g opacity="0.3">
<g opacity="0.3">
<path opacity="0.3" d="M109.091 271.633C108.977 281.268 97.4315 282.91 91.6069 277.922C90.6774 279.172 89.7479 280.246 88.8082 281.165C86.753 283.169 84.6462 284.387 82.5704 284.893C85.4414 282.869 87.4966 279.699 88.1679 276.249C88.8598 272.686 88.0749 268.855 86.0301 265.85L87.92 264.693L109.091 271.633Z" fill="#270E4D"/>
</g>
</g>
<g opacity="0.6">
<g opacity="0.6">
<path opacity="0.6" d="M89.6033 278.346C89.5827 278.459 89.3245 279.606 88.8081 281.165C81.1866 288.57 73.0899 285.358 67.2137 274.308C66.9555 274.39 66.7076 274.473 66.4598 274.555L66.1603 270.022C67.5958 269.629 69.0932 270.342 69.6819 271.705C71.1484 275.041 74.4325 280.731 80.0506 281.526C87.8374 282.6 89.5104 278.573 89.6033 278.346Z" fill="white"/>
</g>
</g>
<path d="M176.518 274.297C169.929 286.721 160.501 289.241 152.135 277.922C146.301 282.91 134.775 281.268 134.651 271.633L146.352 267.801L171.158 259.674L174.236 258.662C200.085 269.206 192.97 279.843 176.518 274.297Z" fill="#FFB127"/>
<path d="M192.061 243.047C152.135 288.921 72.7491 273.368 51.8775 243.047C31.7805 213.593 46.6312 186.257 53.7468 176.084C57.5472 170.642 60.79 164.807 63.2273 158.641C69.6302 142.448 67.9262 131.646 65.7368 97.5242C63.5578 76.9935 75.4549 58.5075 89.8305 54.4282C99.4246 51.7018 110.516 56.5763 118.623 72.8109C120.048 75.6716 124.128 75.6922 125.635 72.8625C134.94 55.43 146.073 51.2061 156.184 55.1202C169.599 60.3045 180.267 77.9849 178.202 97.5139C176.012 131.635 174.298 142.438 180.701 158.631C183.148 164.807 186.391 170.632 190.192 176.074C197.297 186.246 212.148 213.583 192.061 243.047Z" fill="white"/>
<g opacity="0.3">
<g opacity="0.3">
<path opacity="0.3" d="M176.518 274.297C169.929 286.721 160.501 289.241 152.135 277.922C146.301 282.91 134.775 281.268 134.651 271.633L146.352 267.801C147.23 268.018 148.108 268.225 148.996 268.431C153.323 269.423 155.957 274.122 160.222 275.382C163.991 276.497 168.256 274.432 170.322 271.075C172.377 267.719 172.429 263.402 171.148 259.684C171.158 259.684 171.158 259.674 171.158 259.663L174.236 258.651C200.085 269.206 192.97 279.843 176.518 274.297Z" fill="#270E4D"/>
</g>
</g>
<g opacity="0.3">
<g opacity="0.3">
<path opacity="0.3" d="M126.1 92.2883C149.337 103.7 148.996 120.41 130.923 113.005L126.1 92.2883Z" fill="#270E4D"/>
</g>
</g>
<path d="M105.009 90.8715C105.66 82.5067 101.278 75.3438 95.2214 74.8728C89.1652 74.4017 83.7284 80.801 83.0778 89.1659C82.4272 97.5307 86.8093 104.694 92.8655 105.165C98.9216 105.636 104.358 99.2364 105.009 90.8715Z" fill="#270E4D"/>
<path d="M100.346 88.1108C100.564 85.3016 99.2568 82.9089 97.4257 82.7665C95.5946 82.6241 93.9332 84.7859 93.7147 87.595C93.4962 90.4042 94.8035 92.7969 96.6345 92.9393C98.4656 93.0817 100.127 90.9199 100.346 88.1108Z" fill="white"/>
<path d="M150.992 105.174C157.049 104.703 161.431 97.5399 160.78 89.1751C160.129 80.8102 154.693 74.4109 148.636 74.8819C142.58 75.3529 138.198 82.5158 138.849 90.8807C139.499 99.2456 144.936 105.645 150.992 105.174Z" fill="#270E4D"/>
<path d="M147.215 92.9461C149.046 92.8037 150.353 90.411 150.135 87.6019C149.916 84.7927 148.255 82.6309 146.424 82.7733C144.593 82.9157 143.286 85.3084 143.504 88.1176C143.723 90.9267 145.384 93.0885 147.215 92.9461Z" fill="white"/>
<path d="M131.729 107.728C131.729 111.828 130.717 114.988 129.147 117.229C125.45 122.506 118.644 122.568 114.874 117.384C113.253 115.143 112.189 111.931 112.189 107.738" fill="#270E4D"/>
<path d="M132.338 107.077L122.93 108.605C122.754 108.636 122.579 108.657 122.403 108.667C121.918 108.709 121.422 108.678 120.937 108.605L111.58 107.087C110.268 106.871 109.535 105.456 110.093 104.258C113.945 96.0784 118.2 92.1024 122.403 92.2883C126.42 92.4742 130.365 96.4812 133.835 104.289C134.372 105.487 133.639 106.87 132.338 107.077Z" fill="#FFB127"/>
<g opacity="0.6">
<g opacity="0.6">
<path opacity="0.6" d="M126.957 93.8167C126.41 93.6412 125.863 93.5482 125.315 93.5172C121.122 93.3313 116.857 97.3074 113.005 105.487C112.726 106.075 112.768 106.705 113.026 107.222L112.045 107.067C110.733 106.85 110 105.435 110.558 104.237C114.41 96.0578 118.665 92.0817 122.868 92.2676C124.241 92.3399 125.615 92.8563 126.957 93.8167Z" fill="white"/>
</g>
</g>
<path d="M129.147 117.229C125.45 122.506 118.644 122.568 114.874 117.384C114.874 117.311 114.874 117.27 114.874 117.27C119.532 113.563 124.283 113.552 129.147 117.229Z" fill="#FC3F6D"/>
<path d="M121.938 110.237C121.525 110.237 121.112 110.206 120.699 110.134L111.342 108.616C110.237 108.44 109.298 107.759 108.771 106.767C108.244 105.776 108.224 104.619 108.699 103.597C112.716 95.056 117.229 90.7288 122.114 90.7288C122.145 90.7288 122.176 90.7288 122.207 90.7288C127.081 90.7805 131.47 95.1283 135.261 103.648C135.715 104.66 135.663 105.807 135.137 106.778C134.61 107.748 133.68 108.409 132.586 108.595L123.167 110.124C122.764 110.206 122.351 110.237 121.938 110.237ZM122.124 93.8374C118.644 93.8374 114.874 97.7721 111.508 104.919C111.425 105.094 111.477 105.249 111.518 105.321C111.559 105.394 111.652 105.528 111.838 105.559L121.195 107.077C121.69 107.16 122.186 107.16 122.682 107.077L132.1 105.549C132.286 105.518 132.379 105.394 132.421 105.321C132.462 105.249 132.513 105.094 132.441 104.919C129.281 97.8031 125.635 93.8683 122.176 93.8374C122.155 93.8374 122.134 93.8374 122.124 93.8374Z" fill="#270E4D"/>
<path d="M121.959 122.568C118.799 122.568 115.825 120.967 113.79 118.169C111.859 115.514 110.847 111.91 110.847 107.728C110.847 106.984 111.446 106.385 112.189 106.385C112.933 106.385 113.532 106.984 113.532 107.728C113.532 111.332 114.368 114.399 115.969 116.589C117.498 118.685 119.677 119.883 121.969 119.883C121.99 119.883 122.011 119.883 122.031 119.883C124.355 119.862 126.555 118.613 128.062 116.454C129.591 114.275 130.407 111.26 130.407 107.728C130.407 106.984 131.006 106.385 131.749 106.385C132.493 106.385 133.092 106.984 133.092 107.728C133.092 111.817 132.111 115.37 130.262 117.993C128.248 120.864 125.253 122.537 122.062 122.558C122.011 122.568 121.99 122.568 121.959 122.568Z" fill="#270E4D"/>
<g opacity="0.3">
<g opacity="0.3">
<path opacity="0.3" d="M132.338 107.077L122.93 108.605C122.754 108.636 122.579 108.657 122.403 108.667V92.2883C126.42 92.4741 130.365 96.4812 133.835 104.289C134.372 105.487 133.639 106.87 132.338 107.077Z" fill="#270E4D"/>
</g>
</g>
<path d="M66.5837 269.268C66.6973 269.629 66.8522 270.042 67.0174 270.425C67.1827 270.817 67.3479 271.199 67.5338 271.581C67.8953 272.345 68.2877 273.099 68.7008 273.833C69.1242 274.597 68.8557 275.557 68.0915 275.991C67.3273 276.414 66.3668 276.146 65.9434 275.382C65.8401 275.196 65.7782 275 65.7575 274.793V274.762C65.6542 273.864 65.5819 272.965 65.5406 272.067C65.52 271.612 65.5096 271.168 65.5096 270.714C65.5096 270.259 65.52 269.826 65.5716 269.33C65.6026 269.041 65.8504 268.834 66.1396 268.855C66.3565 268.876 66.5217 269.02 66.5837 269.216V269.268Z" fill="#270E4D"/>
<path d="M90.3986 276.962C90.8943 276.497 91.3487 276.136 91.8444 275.764C92.3401 275.402 92.8358 275.051 93.3625 274.741C94.4159 274.122 95.5623 273.574 96.8222 273.388C97.101 273.347 97.3695 273.543 97.4109 273.833C97.4418 274.06 97.3179 274.277 97.1217 274.37L97.0907 274.39C96.1612 274.834 95.3764 275.557 94.6638 276.352C94.3126 276.745 93.9822 277.168 93.662 277.602C93.3522 278.025 93.0321 278.501 92.8152 278.914C92.3918 279.678 91.4416 279.957 90.6774 279.533C89.9132 279.11 89.6343 278.16 90.0578 277.396C90.1404 277.251 90.2333 277.117 90.3573 277.013L90.3986 276.962Z" fill="#270E4D"/>
<path d="M178.181 269.33C178.222 269.826 178.233 270.259 178.243 270.714C178.243 271.168 178.233 271.623 178.212 272.067C178.171 272.965 178.098 273.864 177.995 274.762V274.783C177.892 275.65 177.117 276.27 176.239 276.177C175.372 276.074 174.752 275.299 174.845 274.421C174.866 274.204 174.938 274.008 175.042 273.833C175.455 273.099 175.847 272.345 176.208 271.581C176.394 271.199 176.56 270.817 176.725 270.425C176.88 270.042 177.035 269.629 177.159 269.268L177.179 269.216C177.272 268.948 177.561 268.793 177.84 268.886C178.026 268.948 178.171 269.134 178.181 269.33Z" fill="#270E4D"/>
<path d="M150.927 278.893C150.7 278.48 150.38 278.015 150.08 277.581C149.77 277.148 149.44 276.724 149.079 276.332C148.366 275.537 147.581 274.814 146.652 274.37L146.621 274.349C146.362 274.225 146.249 273.915 146.373 273.657C146.476 273.45 146.693 273.337 146.91 273.368C148.17 273.543 149.326 274.091 150.369 274.721C150.896 275.031 151.402 275.382 151.888 275.743C152.383 276.115 152.838 276.476 153.333 276.941L153.375 276.972C154.005 277.571 154.036 278.563 153.447 279.193C152.858 279.822 151.857 279.853 151.227 279.265C151.103 279.172 150.999 279.038 150.927 278.893Z" fill="#270E4D"/>
<path d="M116.806 25.7492C103.896 1.82073 127.03 -9.54967 129.147 16.1757C136.882 2.68823 153.984 13.6455 133.505 25.7492" fill="#49437C"/>
<g opacity="0.55">
<g opacity="0.55">
<path opacity="0.55" d="M126.111 5.43531C119.697 0.705391 112.076 10.5577 116.93 25.0573L116.806 25.7389C106.323 6.31314 119.604 -4.84039 126.111 5.43531Z" fill="white"/>
</g>
</g>
<g opacity="0.55">
<g opacity="0.55">
<path opacity="0.55" d="M143.006 13.1602C140.548 12.0345 136.789 12.6335 133.681 15.9382C132.266 17.4357 129.704 16.8264 129.209 14.8229L129.198 14.7816C133.835 9.28743 141.818 9.25645 143.006 13.1602Z" fill="white"/>
</g>
</g>
<g opacity="0.3">
<g opacity="0.3">
<path opacity="0.3" d="M174.432 176.756C163.506 153.395 168.525 141.56 169.991 94.1575C171.52 44.7308 159.158 29.6426 158.797 29.2089H158.807C182.457 42.9752 189.954 73.0278 190.842 114.038H190.853C191.028 133.887 194.777 140.724 194.777 140.724C200.199 148.727 212.592 138.627 212.592 138.627C233.412 126.389 240.031 111.807 240.889 109.741C240.961 109.576 240.992 109.494 240.992 109.494C240.992 109.494 241.023 109.772 241.064 110.33C241.126 111.136 241.24 112.52 241.384 114.44C241.384 114.451 241.384 114.451 241.384 114.451C241.219 116.671 240.569 119.139 239.433 121.835C235.105 132.049 223.694 145.371 204.629 159.375C203.721 160.046 202.791 160.717 201.851 161.389L200.395 155.182L200.354 155.213C208.368 186.525 207.666 211.435 199.156 230.189C190.605 245.701 176.147 256.524 156.37 262.824C135.168 269.588 112.303 269.588 91.1009 262.824C88.9321 262.132 86.8253 261.388 84.7908 260.583C161.843 267.853 189.407 205.961 176.518 181.031C176.25 180.525 175.992 180.009 175.744 179.523" fill="#270E4D"/>
</g>
</g>
</svg>
