<svg width="244" height="299" viewBox="0 0 244 299" fill="none" xmlns="http://www.w3.org/2000/svg">
<g opacity="0.3">
<g opacity="0.3">
<path opacity="0.4" d="M122.317 298.274C176.53 298.274 220.479 290.899 220.479 281.802C220.479 272.705 176.53 265.33 122.317 265.33C68.1041 265.33 24.1557 272.705 24.1557 281.802C24.1557 290.899 68.1041 298.274 122.317 298.274Z" fill="#270E4D"/>
</g>
</g>
<path d="M211.33 198C237.33 198 227.33 155.798 227.33 155.798C227.33 151.298 214.33 104.5 191.574 111L191.672 114.675C190.784 73.6752 183.286 43.6226 159.637 29.8459C159.626 29.8459 159.626 29.8459 159.626 29.8459H159.616C159.606 29.8356 159.606 29.8356 159.606 29.8356C150.032 24.2692 137.815 21.3672 122.314 21.4911C68.5082 21.0677 54.2049 57.0688 52.9656 114.675C27.8391 107.662 -2.67019 198 30.8298 198C48.9463 198 41.9463 162.005 41.9463 162.005L42.8964 157.946C30.6792 207.683 40.8309 240.978 69.6029 258.844C75.5205 262.521 82.223 265.537 89.6793 267.922C110.881 274.676 133.746 274.676 154.948 267.922C199.191 253.805 216.85 217.06 201.173 155.829L201.215 155.798L202.671 162.005L205.55 178C205.55 178 202.671 198 211.33 198ZM191.672 115.057V115.005L191.683 115.057H191.672Z" fill="#49437C"/>
<g opacity="0.55">
<g opacity="0.55">
<path opacity="0.55" d="M174.198 42.7758C163.592 31.5086 148.08 25.4362 125.804 25.6117C72.8354 25.1986 58.1499 60.0741 56.5285 116.131C56.4769 117.959 56.9416 119.724 56.5285 121.5L52.0568 137.612L52.9862 116.131C52.9862 116.131 55.5424 117.731 56.5285 121.5C50.2392 126.364 54.7749 126 52.0568 137.612C52.5466 126 52.9862 116.131 52.9862 116.131C52.9862 114.675 52.9862 114.675 52.9862 114.675C54.2255 57.0688 68.5289 21.0677 122.334 21.4911C147.182 21.3052 163.602 28.8752 174.198 42.7758Z" fill="white"/>
</g>
</g>
<g opacity="0.55">
<g opacity="0.55">
<g opacity="0.55">
<path opacity="0.55" d="M191.672 115.016V115.068H191.683L191.672 115.016Z" fill="white"/>
</g>
</g>
</g>
<path d="M109.921 272.27C109.807 281.905 98.2613 283.547 92.4367 278.559C91.5072 279.809 90.5778 280.883 89.638 281.802C87.5828 283.806 85.4761 285.024 83.4003 285.53C77.8028 286.894 72.3293 283.01 68.0435 274.934C67.7853 275.017 67.5375 275.1 67.2896 275.182C51.3855 280.15 44.8793 269.678 70.3362 259.288L88.7602 265.32L109.921 272.27Z" fill="#FFB127"/>
<g opacity="0.6">
<g opacity="0.6">
<path opacity="0.6" d="M109.921 272.27C109.911 272.817 109.993 272.322 109.911 272.817L72.7218 261.684C59.4821 267.086 54.8864 272.508 55.7643 275.771C50.4457 273.571 52.8829 266.414 70.3258 259.299L109.921 272.27Z" fill="white"/>
</g>
</g>
<g opacity="0.3">
<g opacity="0.3">
<path opacity="0.3" d="M109.921 272.27C109.807 281.905 98.2613 283.547 92.4367 278.559C91.5072 279.809 90.5778 280.883 89.638 281.802C87.5828 283.806 85.4761 285.024 83.4003 285.53C86.2713 283.506 88.3264 280.336 88.9977 276.886C89.6896 273.323 88.9047 269.492 86.8599 266.487L88.7498 265.33L109.921 272.27Z" fill="#270E4D"/>
</g>
</g>
<g opacity="0.6">
<g opacity="0.6">
<path opacity="0.6" d="M90.4332 278.983C90.4125 279.096 90.1543 280.243 89.638 281.802C82.0164 289.207 73.9198 285.995 68.0435 274.945C67.7853 275.027 67.5375 275.11 67.2896 275.193L66.9901 270.659C68.4256 270.266 69.9231 270.979 70.5117 272.342C71.9782 275.678 75.2623 281.368 80.8804 282.164C88.6672 283.238 90.3402 279.21 90.4332 278.983Z" fill="white"/>
</g>
</g>
<path d="M177.348 274.934C170.759 287.358 161.33 289.878 152.965 278.559C147.13 283.547 135.605 281.905 135.481 272.27L147.182 268.439L171.988 260.311L175.066 259.299C200.915 269.843 193.8 280.48 177.348 274.934Z" fill="#FFB127"/>
<path d="M192.891 243.684C152.965 289.558 73.579 274.005 52.7074 243.684C32.6104 214.23 47.4611 186.894 54.5766 176.721C58.3771 171.279 61.6199 165.444 64.0571 159.279C70.4601 143.085 68.7561 132.283 66.5667 98.1613C64.3876 77.6305 76.2847 59.1446 90.6604 55.0653C100.254 52.3389 111.346 57.2134 119.453 73.448C120.878 76.3087 124.957 76.3293 126.465 73.4996C135.77 56.0671 146.903 51.8432 157.014 55.7572C170.429 60.9416 181.097 78.622 179.031 98.151C176.842 132.273 175.128 143.075 181.531 159.268C183.978 165.444 187.221 171.269 191.022 176.711C198.127 186.884 212.977 214.22 192.891 243.684Z" fill="white"/>
<g opacity="0.3">
<g opacity="0.3">
<path opacity="0.3" d="M177.348 274.934C170.759 287.358 161.33 289.878 152.965 278.559C147.13 283.547 135.605 281.905 135.481 272.27L147.182 268.438C148.06 268.655 148.938 268.862 149.826 269.068C154.153 270.06 156.786 274.759 161.052 276.019C164.821 277.134 169.086 275.069 171.152 271.712C173.207 268.356 173.258 264.039 171.978 260.321C171.988 260.321 171.988 260.311 171.988 260.301L175.066 259.288C200.915 269.843 193.8 280.48 177.348 274.934Z" fill="#270E4D"/>
</g>
</g>
<path d="M132.81 114.348L123.401 115.877C123.226 115.908 123.05 115.928 122.875 115.939C122.389 115.98 121.893 115.949 121.408 115.877L112.052 114.359C110.74 114.142 110.007 112.727 110.564 111.529C114.416 103.35 118.671 99.3736 122.875 99.5594C126.892 99.7453 130.837 103.752 134.307 111.56C134.844 112.758 134.111 114.142 132.81 114.348Z" fill="#FFB127"/>
<g opacity="0.6">
<g opacity="0.6">
<path opacity="0.6" d="M127.429 101.088C126.882 100.912 126.334 100.819 125.787 100.788C121.594 100.603 117.329 104.579 113.477 112.758C113.198 113.346 113.239 113.976 113.497 114.493L112.516 114.338C111.205 114.121 110.471 112.706 111.029 111.508C114.881 103.329 119.136 99.3529 123.339 99.5388C124.713 99.6111 126.086 100.127 127.429 101.088Z" fill="white"/>
</g>
</g>
<path d="M122.41 117.508C121.997 117.508 121.584 117.477 121.171 117.405L111.814 115.887C110.709 115.711 109.769 115.03 109.242 114.038C108.716 113.047 108.695 111.89 109.17 110.868C113.187 102.327 117.701 98 122.585 98C122.616 98 122.647 98 122.678 98C127.553 98.0516 131.942 102.399 135.732 110.919C136.186 111.932 136.135 113.078 135.608 114.049C135.081 115.019 134.152 115.68 133.057 115.866L123.639 117.395C123.236 117.477 122.823 117.508 122.41 117.508ZM122.596 101.109C119.115 101.109 115.346 105.043 111.979 112.19C111.897 112.365 111.948 112.52 111.99 112.593C112.031 112.665 112.124 112.799 112.31 112.83L121.666 114.348C122.162 114.431 122.658 114.431 123.153 114.348L132.572 112.82C132.758 112.789 132.851 112.665 132.892 112.593C132.933 112.52 132.985 112.365 132.913 112.19C129.753 105.074 126.107 101.14 122.647 101.109C122.627 101.109 122.606 101.109 122.596 101.109Z" fill="#270E4D"/>
<g opacity="0.3">
<g opacity="0.3">
<path opacity="0.3" d="M132.809 114.348L123.401 115.877C123.226 115.908 123.05 115.928 122.875 115.939V99.5594C126.892 99.7453 130.837 103.752 134.307 111.56C134.844 112.758 134.111 114.142 132.809 114.348Z" fill="#270E4D"/>
</g>
</g>
<path d="M67.4135 269.905C67.5271 270.266 67.682 270.68 67.8473 271.062C68.0125 271.454 68.1777 271.836 68.3636 272.218C68.7251 272.983 69.1175 273.736 69.5306 274.47C69.954 275.234 69.6855 276.194 68.9213 276.628C68.1571 277.052 67.1966 276.783 66.7732 276.019C66.6699 275.833 66.608 275.637 66.5873 275.43V275.399C66.4841 274.501 66.4118 273.602 66.3705 272.704C66.3498 272.249 66.3395 271.805 66.3395 271.351C66.3395 270.896 66.3498 270.463 66.4014 269.967C66.4324 269.678 66.6803 269.471 66.9694 269.492C67.1863 269.513 67.3516 269.657 67.4135 269.853V269.905Z" fill="#270E4D"/>
<path d="M91.2284 277.599C91.7241 277.134 92.1785 276.773 92.6742 276.401C93.1699 276.039 93.6656 275.688 94.1923 275.378C95.2457 274.759 96.3921 274.211 97.652 274.026C97.9308 273.984 98.1993 274.18 98.2407 274.47C98.2716 274.697 98.1477 274.914 97.9515 275.007L97.9205 275.027C96.9911 275.471 96.2062 276.194 95.4936 276.99C95.1425 277.382 94.812 277.805 94.4918 278.239C94.182 278.663 93.8619 279.138 93.645 279.551C93.2216 280.315 92.2714 280.594 91.5072 280.17C90.743 279.747 90.4641 278.797 90.8876 278.033C90.9702 277.888 91.0631 277.754 91.1871 277.65L91.2284 277.599Z" fill="#270E4D"/>
<path d="M179.011 269.967C179.052 270.463 179.063 270.896 179.073 271.351C179.073 271.805 179.063 272.26 179.042 272.704C179.001 273.602 178.928 274.501 178.825 275.399V275.42C178.722 276.287 177.947 276.907 177.069 276.814C176.202 276.711 175.582 275.936 175.675 275.058C175.696 274.841 175.768 274.645 175.871 274.47C176.284 273.736 176.677 272.983 177.038 272.218C177.224 271.836 177.389 271.454 177.555 271.062C177.71 270.68 177.865 270.266 177.988 269.905L178.009 269.853C178.102 269.585 178.391 269.43 178.67 269.523C178.856 269.585 179.001 269.771 179.011 269.967Z" fill="#270E4D"/>
<path d="M151.757 279.53C151.53 279.117 151.21 278.652 150.91 278.218C150.6 277.785 150.27 277.361 149.908 276.969C149.196 276.174 148.411 275.451 147.481 275.007L147.45 274.986C147.192 274.862 147.079 274.552 147.203 274.294C147.306 274.088 147.523 273.974 147.74 274.005C149 274.18 150.156 274.728 151.199 275.358C151.726 275.668 152.232 276.019 152.717 276.38C153.213 276.752 153.668 277.113 154.163 277.578L154.205 277.609C154.835 278.208 154.866 279.2 154.277 279.83C153.688 280.46 152.686 280.491 152.056 279.902C151.933 279.809 151.829 279.675 151.757 279.53Z" fill="#270E4D"/>
<path d="M117.635 26.3863C104.726 2.4578 127.859 -8.9126 129.977 16.8128C137.712 3.3253 154.814 14.2826 134.335 26.3863" fill="#49437C"/>
<g opacity="0.55">
<g opacity="0.55">
<path opacity="0.55" d="M126.94 6.07239C120.527 1.34247 112.905 11.1948 117.759 25.6943L117.635 26.3759C107.153 6.95021 120.434 -4.20331 126.94 6.07239Z" fill="white"/>
</g>
</g>
<g opacity="0.55">
<g opacity="0.55">
<path opacity="0.55" d="M143.836 13.7973C141.378 12.6716 137.619 13.2706 134.51 16.5753C133.095 18.0728 130.534 17.4635 130.039 15.46L130.028 15.4187C134.665 9.92451 142.648 9.89352 143.836 13.7973Z" fill="white"/>
</g>
</g>
<rect x="150.83" y="21.9606" width="4" height="30" rx="2" transform="rotate(-10 150.83 21.9606)" fill="#F74C48"/>
<rect x="159.979" y="21.9606" width="4" height="30" rx="2" transform="rotate(-10 159.979 21.9606)" fill="#F74C48"/>
<rect x="169.127" y="21.9606" width="4" height="30" rx="2" transform="rotate(-10 169.127 21.9606)" fill="#F74C48"/>
<path d="M94.7955 103.259C88.7393 102.921 84.3573 97.7866 85.0078 91.7901C85.6584 85.7936 88.2879 84.4325 97.1514 81.5439C109.788 76.4326 107.59 87.0164 106.939 93.0128C106.288 99.0093 100.852 103.597 94.7955 103.259Z" fill="#270E4D"/>
<path d="M94.3299 107.266C88.1813 107.148 85.7477 103.348 86.4992 100.958C88.3876 98.8529 90.7577 103.277 94.8299 103.266C99.2901 103.254 100.776 99.5589 103.737 101.86C104.215 102.643 100.478 107.384 94.3299 107.266Z" fill="#5CADEB"/>
<path d="M89.9456 99.2717C89.871 97.9562 92.0927 96.8233 94.908 96.7412C97.7233 96.6592 100.066 97.6591 100.141 98.9746C100.215 100.29 97.9935 101.423 95.1782 101.505C92.3629 101.587 90.0202 100.587 89.9456 99.2717Z" fill="white"/>
<path d="M152.355 104.259C158.411 103.921 162.793 98.7866 162.143 92.7901C161.492 86.7936 158.863 85.4325 149.999 82.5439C137.363 77.4326 139.561 88.0164 140.211 94.0128C140.862 100.009 146.299 104.597 152.355 104.259Z" fill="#270E4D"/>
<path d="M152.821 108.266C158.969 108.148 161.403 104.348 160.651 101.958C158.763 99.8529 156.393 104.277 152.321 104.266C147.86 104.254 146.374 100.559 143.413 102.86C142.935 103.643 146.672 108.384 152.821 108.266Z" fill="#5CADEB"/>
<path d="M157.205 100.272C157.28 98.9562 155.058 97.8233 152.242 97.7412C149.427 97.6592 147.084 98.6591 147.01 99.9746C146.935 101.29 149.157 102.423 151.972 102.505C154.788 102.587 157.13 101.587 157.205 100.272Z" fill="white"/>
</svg>
