<svg width="244" height="299" viewBox="0 0 244 299" fill="none" xmlns="http://www.w3.org/2000/svg">
<g opacity="0.3">
<g opacity="0.3">
<path opacity="0.4" d="M122.445 298.274C176.658 298.274 220.606 290.899 220.606 281.802C220.606 272.705 176.658 265.33 122.445 265.33C68.2317 265.33 24.2834 272.705 24.2834 281.802C24.2834 290.899 68.2317 298.274 122.445 298.274Z" fill="#270E4D"/>
</g>
</g>
<path d="M211.457 198C237.457 198 227.457 155.798 227.457 155.798C227.457 151.298 214.457 104.5 191.701 111L191.8 114.675C190.912 73.6752 183.414 43.6226 159.764 29.8459C159.754 29.8459 159.754 29.8459 159.754 29.8459H159.744C159.733 29.8356 159.733 29.8356 159.733 29.8356C150.16 24.2692 137.943 21.3672 122.441 21.4911C68.6358 21.0677 54.3325 57.0688 53.0932 114.675C27.9668 107.662 -16.6783 207.54 49.4575 209.04C67.5693 209.451 42.074 162.005 42.074 162.005L43.0241 157.946C30.8068 207.683 40.9586 240.978 69.7306 258.844C75.6482 262.521 82.3506 265.537 89.8069 267.922C111.009 274.676 133.874 274.676 155.076 267.922C199.318 253.805 216.978 217.06 201.301 155.829L201.342 155.798L202.798 162.005L205.678 178C205.678 178 202.798 198 211.457 198ZM191.8 115.057V115.005L191.81 115.057H191.8Z" fill="#49437C"/>
<g opacity="0.55">
<g opacity="0.55">
<path opacity="0.55" d="M174.326 42.7758C163.72 31.5086 148.208 25.4362 125.932 25.6117C72.963 25.1986 58.2776 60.0741 56.6562 116.131C56.6045 117.959 57.0693 119.724 56.6562 121.5L52.1844 137.612L53.1139 116.131C53.1139 116.131 55.6701 117.731 56.6562 121.5C50.3668 126.364 54.9025 126 52.1844 137.612C52.6743 126 53.1139 116.131 53.1139 116.131C53.1139 114.675 53.1139 114.675 53.1139 114.675C54.3532 57.0688 68.6565 21.0677 122.462 21.4911C147.31 21.3052 163.73 28.8752 174.326 42.7758Z" fill="white"/>
</g>
</g>
<g opacity="0.55">
<g opacity="0.55">
<g opacity="0.55">
<path opacity="0.55" d="M191.8 115.016V115.068H191.81L191.8 115.016Z" fill="white"/>
</g>
</g>
</g>
<path d="M110.049 272.27C109.935 281.905 98.3889 283.547 92.5643 278.559C91.6348 279.809 90.7054 280.883 89.7656 281.802C87.7105 283.806 85.6037 285.024 83.5279 285.53C77.9305 286.894 72.457 283.01 68.1711 274.934C67.9129 275.017 67.6651 275.1 67.4172 275.182C51.5131 280.15 45.0069 269.678 70.4638 259.288L88.8878 265.32L110.049 272.27Z" fill="#FFB127"/>
<g opacity="0.6">
<g opacity="0.6">
<path opacity="0.6" d="M110.049 272.27C110.038 272.817 110.121 272.322 110.038 272.817L72.8494 261.684C59.6098 267.086 55.0141 272.508 55.8919 275.771C50.5733 273.571 53.0106 266.414 70.4535 259.299L110.049 272.27Z" fill="white"/>
</g>
</g>
<g opacity="0.3">
<g opacity="0.3">
<path opacity="0.3" d="M110.049 272.27C109.935 281.905 98.3889 283.547 92.5643 278.559C91.6348 279.809 90.7054 280.883 89.7656 281.802C87.7105 283.806 85.6037 285.024 83.5279 285.53C86.3989 283.506 88.454 280.336 89.1253 276.886C89.8172 273.323 89.0324 269.492 86.9875 266.487L88.8774 265.33L110.049 272.27Z" fill="#270E4D"/>
</g>
</g>
<g opacity="0.6">
<g opacity="0.6">
<path opacity="0.6" d="M90.5608 278.983C90.5402 279.096 90.282 280.243 89.7656 281.802C82.144 289.207 74.0474 285.995 68.1712 274.945C67.913 275.027 67.6651 275.11 67.4173 275.193L67.1178 270.659C68.5533 270.266 70.0507 270.979 70.6394 272.342C72.1059 275.678 75.39 281.368 81.008 282.164C88.7949 283.238 90.4679 279.21 90.5608 278.983Z" fill="white"/>
</g>
</g>
<path d="M177.476 274.934C170.887 287.358 161.458 289.878 153.093 278.559C147.258 283.547 135.733 281.905 135.609 272.27L147.31 268.439L172.116 260.311L175.193 259.299C201.043 269.843 193.927 280.48 177.476 274.934Z" fill="#FFB127"/>
<path d="M193.018 243.684C153.093 289.558 73.7066 274.005 52.835 243.684C32.738 214.23 47.5887 186.894 54.7043 176.721C58.5047 171.279 61.7475 165.444 64.1848 159.279C70.5877 143.085 68.8837 132.283 66.6943 98.1613C64.5152 77.6305 76.4123 59.1446 90.788 55.0653C100.382 52.3389 111.474 57.2134 119.581 73.448C121.006 76.3087 125.085 76.3293 126.593 73.4996C135.898 56.0671 147.031 51.8432 157.141 55.7572C170.556 60.9416 181.225 78.622 179.159 98.151C176.97 132.273 175.255 143.075 181.658 159.268C184.106 165.444 187.349 171.269 191.149 176.711C198.254 186.884 213.105 214.22 193.018 243.684Z" fill="url(#paint0_linear_7_57)"/>
<g opacity="0.3">
<g opacity="0.3">
<path opacity="0.3" d="M177.476 274.934C170.887 287.358 161.458 289.878 153.093 278.559C147.258 283.547 135.733 281.905 135.609 272.27L147.31 268.438C148.187 268.655 149.065 268.862 149.953 269.068C154.281 270.06 156.914 274.759 161.179 276.019C164.949 277.134 169.214 275.069 171.279 271.712C173.335 268.356 173.386 264.039 172.106 260.321C172.116 260.321 172.116 260.311 172.116 260.301L175.193 259.288C201.043 269.843 193.927 280.48 177.476 274.934Z" fill="#270E4D"/>
</g>
</g>
<path d="M105.967 93.3279C106.617 87.0724 107.957 76.8228 96.1788 81.3636C87.4575 84.7258 84.6858 85.7969 84.0353 92.0524C83.3847 98.3079 87.7668 103.665 93.8229 104.017C99.8791 104.369 105.316 99.5835 105.967 93.3279Z" fill="#270E4D"/>
<path d="M94.5984 97.5486C91.7905 97.3736 89.3906 98.3413 89.238 99.71C89.0855 101.079 91.2381 102.33 94.0459 102.505C96.8538 102.68 99.2537 101.712 99.4063 100.344C99.5588 98.975 97.4062 97.7236 94.5984 97.5486Z" fill="white"/>
<path d="M151.95 104.052C158.006 103.715 162.388 98.5799 161.738 92.5834C161.087 86.5869 158.457 85.2258 149.594 82.3372C136.957 77.2258 139.156 87.8096 139.806 93.8061C140.457 99.8026 145.894 104.39 151.95 104.052Z" fill="#270E4D"/>
<path d="M156.8 100.065C156.874 98.7495 154.653 97.6165 151.837 97.5345C149.022 97.4524 146.679 98.4524 146.605 99.7679C146.53 101.083 148.752 102.216 151.567 102.298C154.382 102.38 156.725 101.38 156.8 100.065Z" fill="white"/>
<path d="M67.5411 269.905C67.6547 270.266 67.8097 270.68 67.9749 271.062C68.1401 271.454 68.3054 271.836 68.4913 272.218C68.8527 272.983 69.2452 273.736 69.6583 274.47C70.0817 275.234 69.8132 276.194 69.0489 276.628C68.2847 277.052 67.3243 276.783 66.9008 276.019C66.7976 275.833 66.7356 275.637 66.715 275.43V275.399C66.6117 274.501 66.5394 273.602 66.4981 272.704C66.4774 272.249 66.4671 271.805 66.4671 271.351C66.4671 270.896 66.4774 270.463 66.5291 269.967C66.56 269.678 66.8079 269.471 67.0971 269.492C67.3139 269.513 67.4792 269.657 67.5411 269.853V269.905Z" fill="#270E4D"/>
<path d="M91.356 277.599C91.8517 277.134 92.3061 276.773 92.8018 276.401C93.2975 276.039 93.7933 275.688 94.32 275.378C95.3733 274.759 96.5197 274.211 97.7796 274.026C98.0585 273.984 98.327 274.18 98.3683 274.47C98.3993 274.697 98.2753 274.914 98.0791 275.007L98.0481 275.027C97.1187 275.471 96.3338 276.194 95.6212 276.99C95.2701 277.382 94.9396 277.805 94.6194 278.239C94.3096 278.663 93.9895 279.138 93.7726 279.551C93.3492 280.315 92.3991 280.594 91.6348 280.17C90.8706 279.747 90.5918 278.797 91.0152 278.033C91.0978 277.888 91.1908 277.754 91.3147 277.65L91.356 277.599Z" fill="#270E4D"/>
<path d="M179.138 269.967C179.18 270.463 179.19 270.896 179.2 271.351C179.2 271.805 179.19 272.26 179.169 272.704C179.128 273.602 179.056 274.501 178.953 275.399V275.42C178.849 276.287 178.075 276.907 177.197 276.814C176.329 276.711 175.71 275.936 175.803 275.058C175.823 274.841 175.896 274.645 175.999 274.47C176.412 273.736 176.804 272.983 177.166 272.218C177.352 271.836 177.517 271.454 177.682 271.062C177.837 270.68 177.992 270.266 178.116 269.905L178.137 269.853C178.23 269.585 178.519 269.43 178.798 269.523C178.984 269.585 179.128 269.771 179.138 269.967Z" fill="#270E4D"/>
<path d="M151.885 279.53C151.657 279.117 151.337 278.652 151.038 278.218C150.728 277.785 150.398 277.361 150.036 276.969C149.323 276.174 148.539 275.451 147.609 275.007L147.578 274.986C147.32 274.862 147.206 274.552 147.33 274.294C147.434 274.088 147.65 273.974 147.867 274.005C149.127 274.18 150.284 274.728 151.327 275.358C151.854 275.668 152.36 276.019 152.845 276.38C153.341 276.752 153.795 277.113 154.291 277.578L154.332 277.609C154.962 278.208 154.993 279.2 154.405 279.83C153.816 280.46 152.814 280.491 152.184 279.902C152.06 279.809 151.957 279.675 151.885 279.53Z" fill="#270E4D"/>
<path d="M117.763 26.3863C104.854 2.4578 127.987 -8.9126 130.104 16.8128C137.839 3.3253 154.941 14.2826 134.462 26.3863" fill="#49437C"/>
<g opacity="0.55">
<g opacity="0.55">
<path opacity="0.55" d="M127.068 6.07239C120.655 1.34247 113.033 11.1948 117.887 25.6943L117.763 26.3759C107.281 6.95021 120.562 -4.20331 127.068 6.07239Z" fill="white"/>
</g>
</g>
<g opacity="0.55">
<g opacity="0.55">
<path opacity="0.55" d="M143.964 13.7973C141.506 12.6716 137.746 13.2706 134.638 16.5753C133.223 18.0728 130.662 17.4635 130.166 15.46L130.156 15.4187C134.793 9.92451 142.776 9.89352 143.964 13.7973Z" fill="white"/>
</g>
</g>
<path d="M132.457 132.726C132.457 135.53 129.995 137.803 126.957 137.803C123.92 137.803 121.457 135.53 121.457 132.726C121.457 129.922 124.957 113.803 126.957 113.803C128.957 113.803 132.457 129.922 132.457 132.726Z" fill="#309500"/>
<path d="M132.937 114.348L123.529 115.877C123.353 115.908 123.178 115.928 123.002 115.939C122.517 115.98 122.021 115.949 121.536 115.877L112.179 114.359C110.868 114.142 110.134 112.727 110.692 111.529C114.544 103.35 118.799 99.3736 123.002 99.5594C127.02 99.7453 130.965 103.752 134.435 111.56C134.972 112.758 134.238 114.142 132.937 114.348Z" fill="#FFB127"/>
<g opacity="0.6">
<g opacity="0.6">
<path opacity="0.6" d="M127.557 101.088C127.009 100.912 126.462 100.819 125.914 100.788C121.722 100.603 117.456 104.579 113.604 112.758C113.325 113.346 113.367 113.976 113.625 114.493L112.644 114.338C111.332 114.121 110.599 112.706 111.157 111.508C115.009 103.329 119.264 99.3529 123.467 99.5388C124.84 99.6111 126.214 100.127 127.557 101.088Z" fill="white"/>
</g>
</g>
<path d="M122.537 117.508C122.124 117.508 121.711 117.477 121.298 117.405L111.942 115.887C110.837 115.711 109.897 115.03 109.37 114.038C108.843 113.047 108.823 111.89 109.298 110.868C113.315 102.327 117.828 98 122.713 98C122.744 98 122.775 98 122.806 98C127.68 98.0516 132.07 102.399 135.86 110.919C136.314 111.932 136.262 113.078 135.736 114.049C135.209 115.019 134.28 115.68 133.185 115.866L123.766 117.395C123.364 117.477 122.951 117.508 122.537 117.508ZM122.723 101.109C119.243 101.109 115.474 105.043 112.107 112.19C112.024 112.365 112.076 112.52 112.117 112.593C112.158 112.665 112.251 112.799 112.437 112.83L121.794 114.348C122.29 114.431 122.785 114.431 123.281 114.348L132.7 112.82C132.885 112.789 132.978 112.665 133.02 112.593C133.061 112.52 133.113 112.365 133.04 112.19C129.88 105.074 126.235 101.14 122.775 101.109C122.754 101.109 122.734 101.109 122.723 101.109Z" fill="#270E4D"/>
<g opacity="0.3">
<g opacity="0.3">
<path opacity="0.3" d="M132.937 114.348L123.529 115.877C123.353 115.908 123.178 115.928 123.002 115.939V99.5594C127.019 99.7453 130.965 103.752 134.435 111.56C134.972 112.758 134.238 114.142 132.937 114.348Z" fill="#270E4D"/>
</g>
</g>
<path d="M27.8961 177.12C27.8961 177.12 33.0384 167.581 61.801 172.761C90.5637 177.942 85.0327 190.286 65.208 199.263C45.3832 208.241 40.0488 210.457 31.303 203.622C22.5573 196.787 27.8961 177.12 27.8961 177.12Z" fill="#49437C"/>
<path d="M215.91 196.957C215.91 196.957 207.075 203.232 183.581 185.848C160.088 168.464 170.515 159.847 192.265 160.579C214.015 161.31 219.78 161.686 224.593 171.688C229.407 181.689 215.91 196.957 215.91 196.957Z" fill="#49437C"/>
<defs>
<linearGradient id="paint0_linear_7_57" x1="122.923" y1="54.3522" x2="122.923" y2="272.549" gradientUnits="userSpaceOnUse">
<stop stop-color="#80FF00"/>
<stop offset="0.11848" stop-color="#BDFF88"/>
<stop offset="0.238554" stop-color="white"/>
</linearGradient>
</defs>
</svg>
